<?xml version="1.0" encoding="UTF-8" standalone="no"?>
<!-- Created with Inkscape (http://www.inkscape.org/) -->

<svg
   xmlns:osb="http://www.openswatchbook.org/uri/2009/osb"
   xmlns:dc="http://purl.org/dc/elements/1.1/"
   xmlns:cc="http://creativecommons.org/ns#"
   xmlns:rdf="http://www.w3.org/1999/02/22-rdf-syntax-ns#"
   xmlns:svg="http://www.w3.org/2000/svg"
   xmlns="http://www.w3.org/2000/svg"
   xmlns:xlink="http://www.w3.org/1999/xlink"
   xmlns:sodipodi="http://sodipodi.sourceforge.net/DTD/sodipodi-0.dtd"
   xmlns:inkscape="http://www.inkscape.org/namespaces/inkscape"
   width="744.09448819"
   height="1052.3622047"
   id="svg3165"
   version="1.1"
   inkscape:version="0.48.4 r9939"
   sodipodi:docname="pieces.svg"
   inkscape:export-filename="C:\Users\SLiV\Dropbox\Hemel en Aarde\pieces.png"
   inkscape:export-xdpi="182"
   inkscape:export-ydpi="182">
  <defs
     id="defs3167">
    <linearGradient
       id="linearGradient4222"
       osb:paint="solid">
      <stop
         style="stop-color:#c5c5c5;stop-opacity:1;"
         offset="0"
         id="stop4224" />
    </linearGradient>
    <path
       id="path4220-5-1"
       style="fill:#000000;fill-opacity:1;fill-rule:evenodd;stroke:none"
       d="m 461,87.362172 c 0,-8.83655 -7.16344,-15.99999 -16,-15.99999 -8.83656,0 -16,7.16344 -16,15.99999 0,8.83656 7.16344,16.000008 16,16.000008 8.83656,0 16,-7.163448 16,-16.000008 z m 4,0 c 0,-11.0457 -8.95431,-19.99999 -20,-19.99999 -11.04569,0 -20,8.95429 -20,19.99999 0,11.0457 8.95431,20.000008 20,20.000008 11.04569,0 20,-8.954308 20,-20.000008 z"
       inkscape:connector-curvature="0" />
    <path
       id="path5791"
       style="fill:#000000;fill-opacity:1;fill-rule:evenodd;stroke:none"
       d="m 461,87.362172 c 0,-8.83655 -7.16344,-15.99999 -16,-15.99999 -8.83656,0 -16,7.16344 -16,15.99999 0,8.83656 7.16344,16.000008 16,16.000008 8.83656,0 16,-7.163448 16,-16.000008 z m 4,0 c 0,-11.0457 -8.95431,-19.99999 -20,-19.99999 -11.04569,0 -20,8.95429 -20,19.99999 0,11.0457 8.95431,20.000008 20,20.000008 11.04569,0 20,-8.954308 20,-20.000008 z"
       inkscape:connector-curvature="0" />
    <path
       id="path4220-5-6"
       style="fill:#000000;fill-opacity:1;fill-rule:evenodd;stroke:none"
       d="m 461,87.362172 c 0,-8.83655 -7.16344,-15.99999 -16,-15.99999 -8.83656,0 -16,7.16344 -16,15.99999 0,8.83656 7.16344,16.000008 16,16.000008 8.83656,0 16,-7.163448 16,-16.000008 z m 4,0 c 0,-11.0457 -8.95431,-19.99999 -20,-19.99999 -11.04569,0 -20,8.95429 -20,19.99999 0,11.0457 8.95431,20.000008 20,20.000008 11.04569,0 20,-8.954308 20,-20.000008 z"
       inkscape:connector-curvature="0" />
    <path
       id="path5791-0"
       style="fill:#000000;fill-opacity:1;fill-rule:evenodd;stroke:none"
       d="m 461,87.362172 c 0,-8.83655 -7.16344,-15.99999 -16,-15.99999 -8.83656,0 -16,7.16344 -16,15.99999 0,8.83656 7.16344,16.000008 16,16.000008 8.83656,0 16,-7.163448 16,-16.000008 z m 4,0 c 0,-11.0457 -8.95431,-19.99999 -20,-19.99999 -11.04569,0 -20,8.95429 -20,19.99999 0,11.0457 8.95431,20.000008 20,20.000008 11.04569,0 20,-8.954308 20,-20.000008 z"
       inkscape:connector-curvature="0" />
    <path
       id="path4220-5-6-1"
       style="fill:#000000;fill-opacity:1;fill-rule:evenodd;stroke:none"
       d="m 461,87.362172 c 0,-8.83655 -7.16344,-15.99999 -16,-15.99999 -8.83656,0 -16,7.16344 -16,15.99999 0,8.83656 7.16344,16.000008 16,16.000008 8.83656,0 16,-7.163448 16,-16.000008 z m 4,0 c 0,-11.0457 -8.95431,-19.99999 -20,-19.99999 -11.04569,0 -20,8.95429 -20,19.99999 0,11.0457 8.95431,20.000008 20,20.000008 11.04569,0 20,-8.954308 20,-20.000008 z"
       inkscape:connector-curvature="0" />
    <path
       id="path5921"
       style="fill:#000000;fill-opacity:1;fill-rule:evenodd;stroke:none"
       d="m 461,87.362172 c 0,-8.83655 -7.16344,-15.99999 -16,-15.99999 -8.83656,0 -16,7.16344 -16,15.99999 0,8.83656 7.16344,16.000008 16,16.000008 8.83656,0 16,-7.163448 16,-16.000008 z m 4,0 c 0,-11.0457 -8.95431,-19.99999 -20,-19.99999 -11.04569,0 -20,8.95429 -20,19.99999 0,11.0457 8.95431,20.000008 20,20.000008 11.04569,0 20,-8.954308 20,-20.000008 z"
       inkscape:connector-curvature="0" />
    <path
       id="path4220-5-6-8"
       style="fill:#000000;fill-opacity:1;fill-rule:evenodd;stroke:none"
       d="m 461,87.362172 c 0,-8.83655 -7.16344,-15.99999 -16,-15.99999 -8.83656,0 -16,7.16344 -16,15.99999 0,8.83656 7.16344,16.000008 16,16.000008 8.83656,0 16,-7.163448 16,-16.000008 z m 4,0 c 0,-11.0457 -8.95431,-19.99999 -20,-19.99999 -11.04569,0 -20,8.95429 -20,19.99999 0,11.0457 8.95431,20.000008 20,20.000008 11.04569,0 20,-8.954308 20,-20.000008 z"
       inkscape:connector-curvature="0" />
    <path
       id="path5921-6"
       style="fill:#000000;fill-opacity:1;fill-rule:evenodd;stroke:none"
       d="m 461,87.362172 c 0,-8.83655 -7.16344,-15.99999 -16,-15.99999 -8.83656,0 -16,7.16344 -16,15.99999 0,8.83656 7.16344,16.000008 16,16.000008 8.83656,0 16,-7.163448 16,-16.000008 z m 4,0 c 0,-11.0457 -8.95431,-19.99999 -20,-19.99999 -11.04569,0 -20,8.95429 -20,19.99999 0,11.0457 8.95431,20.000008 20,20.000008 11.04569,0 20,-8.954308 20,-20.000008 z"
       inkscape:connector-curvature="0" />
    <path
       id="path4220-5-6-2"
       style="fill:#000000;fill-opacity:1;fill-rule:evenodd;stroke:none"
       d="m 461,87.362172 c 0,-8.83655 -7.16344,-15.99999 -16,-15.99999 -8.83656,0 -16,7.16344 -16,15.99999 0,8.83656 7.16344,16.000008 16,16.000008 8.83656,0 16,-7.163448 16,-16.000008 z m 4,0 c 0,-11.0457 -8.95431,-19.99999 -20,-19.99999 -11.04569,0 -20,8.95429 -20,19.99999 0,11.0457 8.95431,20.000008 20,20.000008 11.04569,0 20,-8.954308 20,-20.000008 z"
       inkscape:connector-curvature="0" />
    <path
       id="path5921-7"
       style="fill:#000000;fill-opacity:1;fill-rule:evenodd;stroke:none"
       d="m 461,87.362172 c 0,-8.83655 -7.16344,-15.99999 -16,-15.99999 -8.83656,0 -16,7.16344 -16,15.99999 0,8.83656 7.16344,16.000008 16,16.000008 8.83656,0 16,-7.163448 16,-16.000008 z m 4,0 c 0,-11.0457 -8.95431,-19.99999 -20,-19.99999 -11.04569,0 -20,8.95429 -20,19.99999 0,11.0457 8.95431,20.000008 20,20.000008 11.04569,0 20,-8.954308 20,-20.000008 z"
       inkscape:connector-curvature="0" />
    <path
       id="path4220-5-6-7"
       style="fill:#000000;fill-opacity:1;fill-rule:evenodd;stroke:none"
       d="m 461,87.362172 c 0,-8.83655 -7.16344,-15.99999 -16,-15.99999 -8.83656,0 -16,7.16344 -16,15.99999 0,8.83656 7.16344,16.000008 16,16.000008 8.83656,0 16,-7.163448 16,-16.000008 z m 4,0 c 0,-11.0457 -8.95431,-19.99999 -20,-19.99999 -11.04569,0 -20,8.95429 -20,19.99999 0,11.0457 8.95431,20.000008 20,20.000008 11.04569,0 20,-8.954308 20,-20.000008 z"
       inkscape:connector-curvature="0" />
    <path
       id="path5921-67"
       style="fill:#000000;fill-opacity:1;fill-rule:evenodd;stroke:none"
       d="m 461,87.362172 c 0,-8.83655 -7.16344,-15.99999 -16,-15.99999 -8.83656,0 -16,7.16344 -16,15.99999 0,8.83656 7.16344,16.000008 16,16.000008 8.83656,0 16,-7.163448 16,-16.000008 z m 4,0 c 0,-11.0457 -8.95431,-19.99999 -20,-19.99999 -11.04569,0 -20,8.95429 -20,19.99999 0,11.0457 8.95431,20.000008 20,20.000008 11.04569,0 20,-8.954308 20,-20.000008 z"
       inkscape:connector-curvature="0" />
    <path
       id="path4220-5-6-5"
       style="fill:#000000;fill-opacity:1;fill-rule:evenodd;stroke:none"
       d="m 461,87.362172 c 0,-8.83655 -7.16344,-15.99999 -16,-15.99999 -8.83656,0 -16,7.16344 -16,15.99999 0,8.83656 7.16344,16.000008 16,16.000008 8.83656,0 16,-7.163448 16,-16.000008 z m 4,0 c 0,-11.0457 -8.95431,-19.99999 -20,-19.99999 -11.04569,0 -20,8.95429 -20,19.99999 0,11.0457 8.95431,20.000008 20,20.000008 11.04569,0 20,-8.954308 20,-20.000008 z"
       inkscape:connector-curvature="0" />
    <path
       id="path5921-8"
       style="fill:#000000;fill-opacity:1;fill-rule:evenodd;stroke:none"
       d="m 461,87.362172 c 0,-8.83655 -7.16344,-15.99999 -16,-15.99999 -8.83656,0 -16,7.16344 -16,15.99999 0,8.83656 7.16344,16.000008 16,16.000008 8.83656,0 16,-7.163448 16,-16.000008 z m 4,0 c 0,-11.0457 -8.95431,-19.99999 -20,-19.99999 -11.04569,0 -20,8.95429 -20,19.99999 0,11.0457 8.95431,20.000008 20,20.000008 11.04569,0 20,-8.954308 20,-20.000008 z"
       inkscape:connector-curvature="0" />
  </defs>
  <sodipodi:namedview
     id="base"
     pagecolor="#ffffff"
     bordercolor="#666666"
     borderopacity="1.0"
     inkscape:pageopacity="0.0"
     inkscape:pageshadow="2"
     inkscape:zoom="2.8284272"
     inkscape:cx="242.43238"
     inkscape:cy="936.55937"
     inkscape:document-units="px"
     inkscape:current-layer="g6097"
     showgrid="true"
     inkscape:snap-bbox="true"
     inkscape:object-paths="false"
     inkscape:window-width="1920"
     inkscape:window-height="1028"
     inkscape:window-x="-8"
     inkscape:window-y="-8"
     inkscape:window-maximized="1"
     inkscape:snap-bbox-midpoints="true"
     inkscape:snap-nodes="false">
    <inkscape:grid
       type="xygrid"
       id="grid3173" />
  </sodipodi:namedview>
  <metadata
     id="metadata3170">
    <rdf:RDF>
      <cc:Work
         rdf:about="">
        <dc:format>image/svg+xml</dc:format>
        <dc:type
           rdf:resource="http://purl.org/dc/dcmitype/StillImage" />
        <dc:title />
      </cc:Work>
    </rdf:RDF>
  </metadata>
  <g
     inkscape:label="Background"
     inkscape:groupmode="layer"
     id="layer1">
    <rect
       style="fill-opacity:1;stroke:#808080;stroke-width:1;stroke-miterlimit:4;stroke-opacity:1;stroke-dasharray:none"
       id="rect4163"
       width="50"
       height="50"
       x="19.5"
       y="61.862183"
       inkscape:tile-cx="35"
       inkscape:tile-cy="32.362183"
       inkscape:tile-w="50"
       inkscape:tile-h="50"
       inkscape:tile-x0="10"
       inkscape:tile-y0="7.3621826" />
    <use
       x="0"
       y="0"
       inkscape:tiled-clone-of="#rect4163"
       xlink:href="#rect4163"
       transform="translate(0,50.000002)"
       id="use4167"
       style="fill:#cd3535;fill-opacity:1;stroke-width:1;stroke-miterlimit:4;stroke-dasharray:none"
       inkscape:tile-cx="35"
       inkscape:tile-cy="82.362183"
       inkscape:tile-w="50"
       inkscape:tile-h="50"
       inkscape:tile-x0="10"
       inkscape:tile-y0="57.362183"
       width="744.09448"
       height="1052.3622" />
    <use
       x="0"
       y="0"
       inkscape:tiled-clone-of="#rect4163"
       xlink:href="#rect4163"
       transform="translate(0,100)"
       id="use4169"
       style="fill:#38ca4c;fill-opacity:1;stroke-width:1;stroke-miterlimit:4;stroke-dasharray:none"
       inkscape:tile-cx="35"
       inkscape:tile-cy="132.36218"
       inkscape:tile-w="50"
       inkscape:tile-h="50"
       inkscape:tile-x0="10"
       inkscape:tile-y0="107.36218"
       width="744.09448"
       height="1052.3622" />
    <rect
       style="fill-opacity:1;stroke:#808080;stroke-width:1;stroke-miterlimit:4;stroke-opacity:1;stroke-dasharray:none"
       id="rect4185"
       width="50"
       height="50"
       x="19.5"
       y="311.86218"
       inkscape:tile-cx="35"
       inkscape:tile-cy="207.36218"
       inkscape:tile-w="50"
       inkscape:tile-h="50"
       inkscape:tile-x0="10"
       inkscape:tile-y0="182.36218" />
    <use
       x="0"
       y="0"
       inkscape:tiled-clone-of="#rect4185"
       xlink:href="#rect4185"
       transform="translate(0,49.999998)"
       id="use4189"
       style="fill:#b34f4f;fill-opacity:1"
       inkscape:tile-cx="35"
       inkscape:tile-cy="257.36218"
       inkscape:tile-w="50"
       inkscape:tile-h="50"
       inkscape:tile-x0="10"
       inkscape:tile-y0="232.36218"
       width="744.09448"
       height="1052.3622" />
    <use
       x="0"
       y="0"
       inkscape:tiled-clone-of="#rect4185"
       xlink:href="#rect4185"
       transform="translate(0,99.999998)"
       id="use4191"
       style="fill:#4eb45c;fill-opacity:1"
       inkscape:tile-cx="35"
       inkscape:tile-cy="307.36218"
       inkscape:tile-w="50"
       inkscape:tile-h="50"
       inkscape:tile-x0="10"
       inkscape:tile-y0="282.36218"
       width="744.09448"
       height="1052.3622" />
    <use
       x="0"
       y="0"
       inkscape:tiled-clone-of="#use4167"
       xlink:href="#use4167"
       transform="translate(100,2.9e-7)"
       id="use4197"
       width="744.09448"
       height="1052.3622"
       style="stroke-width:1;stroke-miterlimit:4;stroke-dasharray:none" />
    <use
       x="0"
       y="0"
       inkscape:tiled-clone-of="#use4167"
       xlink:href="#use4167"
       transform="translate(150,2.9e-7)"
       id="use4199"
       width="744.09448"
       height="1052.3622"
       style="stroke-width:1;stroke-miterlimit:4;stroke-dasharray:none" />
    <use
       x="0"
       y="0"
       inkscape:tiled-clone-of="#use4167"
       xlink:href="#use4167"
       transform="translate(200,2.9e-7)"
       id="use4201"
       width="744.09448"
       height="1052.3622"
       style="stroke-width:1;stroke-miterlimit:4;stroke-dasharray:none" />
    <use
       x="0"
       y="0"
       inkscape:tiled-clone-of="#use4167"
       xlink:href="#use4167"
       transform="translate(250,2.9e-7)"
       id="use4203"
       width="744.09448"
       height="1052.3622"
       style="stroke-width:1;stroke-miterlimit:4;stroke-dasharray:none" />
    <use
       x="0"
       y="0"
       inkscape:tiled-clone-of="#use4167"
       xlink:href="#use4167"
       transform="translate(300,2.9e-7)"
       id="use4205"
       width="744.09448"
       height="1052.3622"
       style="stroke-width:1;stroke-miterlimit:4;stroke-dasharray:none" />
    <use
       x="0"
       y="0"
       inkscape:tiled-clone-of="#use4167"
       xlink:href="#use4167"
       transform="translate(350,2.9e-7)"
       id="use4207"
       width="744.09448"
       height="1052.3622"
       style="stroke-width:1;stroke-miterlimit:4;stroke-dasharray:none" />
    <use
       x="0"
       y="0"
       inkscape:tiled-clone-of="#use4167"
       xlink:href="#use4167"
       transform="translate(400,2.9e-7)"
       id="use4209"
       width="744.09448"
       height="1052.3622"
       style="stroke-width:1;stroke-miterlimit:4;stroke-dasharray:none" />
    <use
       x="0"
       y="0"
       inkscape:tiled-clone-of="#use4167"
       xlink:href="#use4167"
       transform="translate(450,2.9e-7)"
       id="use4211"
       width="744.09448"
       height="1052.3622"
       style="stroke-width:1;stroke-miterlimit:4;stroke-dasharray:none" />
    <use
       x="0"
       y="0"
       inkscape:tiled-clone-of="#use4169"
       xlink:href="#use4169"
       transform="translate(100,2.9e-7)"
       id="use4217"
       width="744.09448"
       height="1052.3622"
       style="stroke-width:1;stroke-miterlimit:4;stroke-dasharray:none" />
    <use
       x="0"
       y="0"
       inkscape:tiled-clone-of="#use4169"
       xlink:href="#use4169"
       transform="translate(150,2.9e-7)"
       id="use4219"
       width="744.09448"
       height="1052.3622"
       style="stroke-width:1;stroke-miterlimit:4;stroke-dasharray:none" />
    <use
       x="0"
       y="0"
       inkscape:tiled-clone-of="#use4169"
       xlink:href="#use4169"
       transform="translate(200,2.9e-7)"
       id="use4221"
       width="744.09448"
       height="1052.3622"
       style="stroke-width:1;stroke-miterlimit:4;stroke-dasharray:none" />
    <use
       x="0"
       y="0"
       inkscape:tiled-clone-of="#use4169"
       xlink:href="#use4169"
       transform="translate(250,2.9e-7)"
       id="use4223"
       width="744.09448"
       height="1052.3622"
       style="stroke-width:1;stroke-miterlimit:4;stroke-dasharray:none" />
    <use
       x="0"
       y="0"
       inkscape:tiled-clone-of="#use4169"
       xlink:href="#use4169"
       transform="translate(300,2.9e-7)"
       id="use4225"
       width="744.09448"
       height="1052.3622"
       style="stroke-width:1;stroke-miterlimit:4;stroke-dasharray:none" />
    <use
       x="0"
       y="0"
       inkscape:tiled-clone-of="#use4169"
       xlink:href="#use4169"
       transform="translate(350,2.9e-7)"
       id="use4227"
       width="744.09448"
       height="1052.3622"
       style="stroke-width:1;stroke-miterlimit:4;stroke-dasharray:none" />
    <use
       x="0"
       y="0"
       inkscape:tiled-clone-of="#use4169"
       xlink:href="#use4169"
       transform="translate(400,2.9e-7)"
       id="use4229"
       width="744.09448"
       height="1052.3622"
       style="stroke-width:1;stroke-miterlimit:4;stroke-dasharray:none" />
    <use
       x="0"
       y="0"
       inkscape:tiled-clone-of="#use4169"
       xlink:href="#use4169"
       transform="translate(450,2.9e-7)"
       id="use4231"
       width="744.09448"
       height="1052.3622"
       style="stroke-width:1;stroke-miterlimit:4;stroke-dasharray:none" />
    <use
       x="0"
       y="0"
       inkscape:tiled-clone-of="#use4189"
       xlink:href="#use4189"
       transform="translate(100,-1.6101562e-6)"
       id="use4237"
       width="744.09448"
       height="1052.3622" />
    <use
       x="0"
       y="0"
       inkscape:tiled-clone-of="#use4189"
       xlink:href="#use4189"
       transform="translate(150,-1.6101562e-6)"
       id="use4239"
       width="744.09448"
       height="1052.3622" />
    <use
       x="0"
       y="0"
       inkscape:tiled-clone-of="#use4189"
       xlink:href="#use4189"
       transform="translate(200,-1.6101562e-6)"
       id="use4241"
       width="744.09448"
       height="1052.3622" />
    <use
       x="0"
       y="0"
       inkscape:tiled-clone-of="#use4189"
       xlink:href="#use4189"
       transform="translate(250,-1.6101562e-6)"
       id="use4243"
       width="744.09448"
       height="1052.3622" />
    <use
       x="0"
       y="0"
       inkscape:tiled-clone-of="#use4189"
       xlink:href="#use4189"
       transform="translate(300,-1.6101562e-6)"
       id="use4245"
       width="744.09448"
       height="1052.3622" />
    <use
       x="0"
       y="0"
       inkscape:tiled-clone-of="#use4189"
       xlink:href="#use4189"
       transform="translate(350,-1.6101562e-6)"
       id="use4247"
       width="744.09448"
       height="1052.3622" />
    <use
       x="0"
       y="0"
       inkscape:tiled-clone-of="#use4189"
       xlink:href="#use4189"
       transform="translate(400,-1.6101562e-6)"
       id="use4249"
       width="744.09448"
       height="1052.3622" />
    <use
       x="0"
       y="0"
       inkscape:tiled-clone-of="#use4189"
       xlink:href="#use4189"
       transform="translate(450,-1.6101562e-6)"
       id="use4251"
       width="744.09448"
       height="1052.3622" />
    <use
       x="0"
       y="0"
       inkscape:tiled-clone-of="#use4191"
       xlink:href="#use4191"
       transform="translate(100,-1.6101562e-6)"
       id="use4257"
       width="744.09448"
       height="1052.3622" />
    <use
       x="0"
       y="0"
       inkscape:tiled-clone-of="#use4191"
       xlink:href="#use4191"
       transform="translate(150,-1.6101562e-6)"
       id="use4259"
       width="744.09448"
       height="1052.3622" />
    <use
       x="0"
       y="0"
       inkscape:tiled-clone-of="#use4191"
       xlink:href="#use4191"
       transform="translate(200,-1.6101562e-6)"
       id="use4261"
       width="744.09448"
       height="1052.3622" />
    <use
       x="0"
       y="0"
       inkscape:tiled-clone-of="#use4191"
       xlink:href="#use4191"
       transform="translate(250,-1.6101562e-6)"
       id="use4263"
       width="744.09448"
       height="1052.3622" />
    <use
       x="0"
       y="0"
       inkscape:tiled-clone-of="#use4191"
       xlink:href="#use4191"
       transform="translate(300,-1.6101562e-6)"
       id="use4265"
       width="744.09448"
       height="1052.3622" />
    <use
       x="0"
       y="0"
       inkscape:tiled-clone-of="#use4191"
       xlink:href="#use4191"
       transform="translate(350,-1.6101562e-6)"
       id="use4267"
       width="744.09448"
       height="1052.3622" />
    <use
       x="0"
       y="0"
       inkscape:tiled-clone-of="#use4191"
       xlink:href="#use4191"
       transform="translate(400,-1.6101562e-6)"
       id="use4269"
       width="744.09448"
       height="1052.3622" />
    <use
       x="0"
       y="0"
       inkscape:tiled-clone-of="#use4191"
       xlink:href="#use4191"
       transform="translate(450,-1.6101562e-6)"
       id="use4271"
       width="744.09448"
       height="1052.3622" />
    <text
       xml:space="preserve"
       style="font-size:40px;font-style:normal;font-weight:normal;line-height:125%;letter-spacing:0px;word-spacing:0px;fill:#000000;fill-opacity:1;stroke:none;font-family:Sans"
       x="18.4375"
       y="301.89343"
       id="text4273"
       sodipodi:linespacing="125%"><tspan
         sodipodi:role="line"
         id="tspan4275"
         x="18.4375"
         y="301.89343">characters</tspan></text>
    <text
       xml:space="preserve"
       style="font-size:40px;font-style:normal;font-weight:normal;line-height:125%;letter-spacing:0px;word-spacing:0px;fill:#000000;fill-opacity:1;stroke:none;font-family:Sans"
       x="20"
       y="52.362183"
       id="text4277"
       sodipodi:linespacing="125%"><tspan
         sodipodi:role="line"
         id="tspan4279"
         x="20"
         y="52.362183">bodies</tspan><tspan
         sodipodi:role="line"
         x="20"
         y="102.36218"
         id="tspan4281" /></text>
  </g>
  <g
     inkscape:groupmode="layer"
     id="layer3"
     inkscape:label="Ringen" />
  <g
     inkscape:groupmode="layer"
     id="layer2"
     inkscape:label="Letters">
    <text
       xml:space="preserve"
       style="font-size:32px;font-style:normal;font-variant:normal;font-weight:normal;font-stretch:normal;text-align:start;line-height:125%;letter-spacing:0px;word-spacing:0px;writing-mode:lr-tb;text-anchor:start;fill:#000000;fill-opacity:1;stroke:none;font-family:Last Ninja;-inkscape-font-specification:Last Ninja"
       x="129.14063"
       y="351.3075"
       id="text4511-1"
       sodipodi:linespacing="125%"><tspan
         sodipodi:role="line"
         id="tspan4513-7"
         x="129.14063"
         y="351.3075">K</tspan></text>
    <text
       xml:space="preserve"
       style="font-size:32px;font-style:normal;font-variant:normal;font-weight:normal;font-stretch:normal;text-align:start;line-height:125%;letter-spacing:0px;word-spacing:0px;writing-mode:lr-tb;text-anchor:start;fill:#000000;fill-opacity:1;stroke:none;font-family:Last Ninja;-inkscape-font-specification:Last Ninja"
       x="180.02344"
       y="352.04968"
       id="text4547-4"
       sodipodi:linespacing="125%"><tspan
         sodipodi:role="line"
         id="tspan4549-0"
         x="180.02344"
         y="352.04968">Q</tspan></text>
    <text
       xml:space="preserve"
       style="font-size:32px;font-style:normal;font-variant:normal;font-weight:normal;font-stretch:normal;text-align:start;line-height:125%;letter-spacing:0px;word-spacing:0px;writing-mode:lr-tb;text-anchor:start;fill:#000000;fill-opacity:1;stroke:none;font-family:Last Ninja;-inkscape-font-specification:Last Ninja"
       x="228.92188"
       y="352.06531"
       id="text4551-9"
       sodipodi:linespacing="125%"><tspan
         sodipodi:role="line"
         id="tspan4553-4"
         x="228.92188"
         y="352.06531">G</tspan></text>
    <text
       xml:space="preserve"
       style="font-size:32px;font-style:normal;font-variant:normal;font-weight:normal;font-stretch:normal;text-align:start;line-height:125%;letter-spacing:0px;word-spacing:0px;writing-mode:lr-tb;text-anchor:start;fill:#000000;fill-opacity:1;stroke:none;font-family:Last Ninja;-inkscape-font-specification:Last Ninja"
       x="330.32813"
       y="352.11218"
       id="text4555-8"
       sodipodi:linespacing="125%"><tspan
         sodipodi:role="line"
         id="tspan4557-8"
         x="330.32813"
         y="352.11218">H</tspan></text>
    <text
       xml:space="preserve"
       style="font-size:32px;font-style:normal;font-variant:normal;font-weight:normal;font-stretch:normal;text-align:start;line-height:125%;letter-spacing:0px;word-spacing:0px;writing-mode:lr-tb;text-anchor:start;fill:#000000;fill-opacity:1;stroke:none;font-family:Last Ninja;-inkscape-font-specification:Last Ninja"
       x="280.77344"
       y="352.04968"
       id="text4559-2"
       sodipodi:linespacing="125%"><tspan
         sodipodi:role="line"
         id="tspan4561-4"
         x="280.77344"
         y="352.04968">S</tspan></text>
    <text
       xml:space="preserve"
       style="font-size:32px;font-style:normal;font-variant:normal;font-weight:normal;font-stretch:normal;text-align:start;line-height:125%;letter-spacing:0px;word-spacing:0px;writing-mode:lr-tb;text-anchor:start;fill:#000000;fill-opacity:1;stroke:none;font-family:Last Ninja;-inkscape-font-specification:Last Ninja"
       x="378.77344"
       y="350.84656"
       id="text4563-5"
       sodipodi:linespacing="125%"><tspan
         sodipodi:role="line"
         id="tspan4565-5"
         x="378.77344"
         y="350.84656">A</tspan></text>
    <text
       xml:space="preserve"
       style="font-size:32px;font-style:normal;font-variant:normal;font-weight:normal;font-stretch:normal;text-align:start;line-height:125%;letter-spacing:0px;word-spacing:0px;writing-mode:lr-tb;text-anchor:start;fill:#000000;fill-opacity:1;stroke:none;font-family:Last Ninja;-inkscape-font-specification:Last Ninja"
       x="430.63281"
       y="352.08093"
       id="text4567-1"
       sodipodi:linespacing="125%"><tspan
         sodipodi:role="line"
         id="tspan4569-7"
         x="430.63281"
         y="352.08093">F</tspan></text>
    <use
       x="0"
       y="0"
       xlink:href="#text4511-1"
       id="use4652"
       transform="translate(0,50)"
       width="744.09448"
       height="1052.3622" />
    <use
       x="0"
       y="0"
       xlink:href="#text4547-4"
       id="use4654"
       transform="translate(0,50)"
       width="744.09448"
       height="1052.3622" />
    <use
       x="0"
       y="0"
       xlink:href="#text4551-9"
       id="use4656"
       transform="translate(0,50)"
       width="744.09448"
       height="1052.3622" />
    <use
       x="0"
       y="0"
       xlink:href="#text4555-8"
       id="use4658"
       transform="translate(0,50)"
       width="744.09448"
       height="1052.3622" />
    <use
       x="0"
       y="0"
       xlink:href="#text4559-2"
       id="use4660"
       transform="translate(0,50)"
       width="744.09448"
       height="1052.3622" />
    <use
       x="0"
       y="0"
       xlink:href="#text4563-5"
       id="use4662"
       transform="translate(0,50)"
       width="744.09448"
       height="1052.3622" />
    <use
       x="0"
       y="0"
       xlink:href="#text4567-1"
       id="use4664"
       transform="translate(0,50)"
       width="744.09448"
       height="1052.3622" />
    <use
       x="0"
       y="0"
       xlink:href="#text4511-1"
       id="use4666"
       transform="translate(0,100.00001)"
       width="744.09448"
       height="1052.3622" />
    <use
       x="0"
       y="0"
       xlink:href="#text4547-4"
       id="use4668"
       transform="translate(0,99.999998)"
       width="744.09448"
       height="1052.3622" />
    <use
       x="0"
       y="0"
       xlink:href="#text4551-9"
       id="use4670"
       transform="translate(0,100)"
       width="744.09448"
       height="1052.3622" />
    <use
       x="0"
       y="0"
       xlink:href="#text4555-8"
       id="use4672"
       transform="translate(0,99.999998)"
       width="744.09448"
       height="1052.3622" />
    <use
       x="0"
       y="0"
       xlink:href="#text4559-2"
       id="use4674"
       transform="translate(0,99.999998)"
       width="744.09448"
       height="1052.3622" />
    <use
       x="0"
       y="0"
       xlink:href="#text4563-5"
       id="use4676"
       transform="translate(0,100)"
       width="744.09448"
       height="1052.3622" />
    <use
       x="0"
       y="0"
       xlink:href="#text4567-1"
       id="use4678"
       transform="translate(0,99.999998)"
       width="744.09448"
       height="1052.3622" />
    <g
       id="g6097">
      <g
         id="g6198">
        <path
           id="path5793"
           style="fill:#000000;fill-opacity:1;fill-rule:evenodd;stroke:none;opacity:0.60352422999999999"
           d="m 411,87.362174 c 0,-8.83655 -7.16344,-15.99999 -16,-15.99999 -8.83656,0 -16,7.16344 -16,15.99999 0,8.836557 7.16344,16.000006 16,16.000006 8.83656,0 16,-7.163449 16,-16.000006 z m 4,0 c 0,-11.0457 -8.95431,-19.99999 -20,-19.99999 -11.04569,0 -20,8.95429 -20,19.99999 0,11.045697 8.95431,20.000006 20,20.000006 11.04569,0 20,-8.954309 20,-20.000006 z"
           inkscape:connector-curvature="0" />
        <text
           xml:space="preserve"
           style="font-size:16px;font-style:normal;font-variant:normal;font-weight:normal;font-stretch:normal;text-align:center;line-height:125%;letter-spacing:0px;word-spacing:0px;writing-mode:lr-tb;text-anchor:middle;fill:#000000;fill-opacity:1;stroke:none;font-family:Last Ninja;-inkscape-font-specification:Last Ninja"
           x="395.00781"
           y="94.69812"
           id="text4567-2"
           sodipodi:linespacing="125%"><tspan
             sodipodi:role="line"
             id="tspan4569-6"
             x="395.00781"
             y="94.69812">N</tspan></text>
        <text
           xml:space="preserve"
           style="font-size:4px;font-style:normal;font-variant:normal;font-weight:normal;font-stretch:normal;text-align:start;line-height:125%;letter-spacing:0px;word-spacing:0px;writing-mode:lr-tb;text-anchor:start;fill:#000000;fill-opacity:1;stroke:none;font-family:Last Ninja;-inkscape-font-specification:Last Ninja;opacity:0.60352422999999999"
           id="text5736-0"
           sodipodi:linespacing="125%"
           transform="translate(-50,1.8543751e-6)"><textPath
             xlink:href="#path4220-5-1"
             id="textPath5771-4"><tspan
   id="tspan5738-9"
   style="fill:#000000;fill-opacity:1">nightingalE</tspan></textPath></text>
        <use
           x="0"
           y="0"
           xlink:href="#text5736-0"
           id="use5776-4"
           transform="matrix(-1,0,0,-1,789.9999,174.72438)"
           width="744.09448"
           height="1052.3622" />
        <path
           id="path5793-3"
           style="fill:#000000;fill-opacity:1;fill-rule:evenodd;stroke:none;opacity:0.60352422999999999"
           d="m 461,87.362172 c 0,-8.83655 -7.16344,-15.99999 -16,-15.99999 -8.83656,0 -16,7.16344 -16,15.99999 0,8.83656 7.16344,15.999998 16,15.999998 8.83656,0 16,-7.163438 16,-15.999998 z m 4,0 c 0,-11.0457 -8.95431,-19.99999 -20,-19.99999 -11.04569,0 -20,8.95429 -20,19.99999 0,11.0457 8.95431,19.999998 20,19.999998 11.04569,0 20,-8.954298 20,-19.999998 z"
           inkscape:connector-curvature="0" />
        <text
           xml:space="preserve"
           style="font-size:16px;font-style:normal;font-variant:normal;font-weight:normal;font-stretch:normal;text-align:center;line-height:125%;letter-spacing:0px;word-spacing:0px;writing-mode:lr-tb;text-anchor:middle;fill:#000000;fill-opacity:1;stroke:none;font-family:Last Ninja;-inkscape-font-specification:Last Ninja"
           x="445.00781"
           y="94.69812"
           id="text4567-6"
           sodipodi:linespacing="125%"><tspan
             sodipodi:role="line"
             id="tspan4569-2"
             x="445.00781"
             y="94.69812">L</tspan></text>
        <text
           xml:space="preserve"
           style="font-size:4px;font-style:normal;font-variant:normal;font-weight:normal;font-stretch:normal;text-align:start;line-height:125%;letter-spacing:0px;word-spacing:0px;writing-mode:lr-tb;text-anchor:start;fill:#000000;fill-opacity:1;stroke:none;font-family:Last Ninja;-inkscape-font-specification:Last Ninja;opacity:0.60352422999999999"
           id="text5736-4"
           sodipodi:linespacing="125%"
           transform="translate(-1.3427734e-5,1.0192559e-5)"><textPath
             xlink:href="#path4220-5-6"
             id="textPath5771-5">Lotus</textPath></text>
        <use
           x="0"
           y="0"
           xlink:href="#text5736-4"
           id="use5776-8"
           transform="matrix(-1,0,0,-1,889.99989,174.72437)"
           width="744.09448"
           height="1052.3622" />
        <path
           id="path5793-3-4"
           style="fill:#000000;fill-opacity:1;fill-rule:evenodd;stroke:none;opacity:0.60352423"
           d="m 358.95509,87.121708 c 0,-8.83655 -7.16344,-15.99999 -16,-15.99999 -8.83656,0 -16,7.16344 -16,15.99999 0,8.83656 7.16344,16.000012 16,16.000012 8.83656,0 16,-7.163452 16,-16.000012 z m 4,0 c 0,-11.0457 -8.95431,-19.99999 -20,-19.99999 -11.04569,0 -20,8.95429 -20,19.99999 0,11.0457 8.95431,20.000012 20,20.000012 11.04569,0 20,-8.954312 20,-20.000012 z"
           inkscape:connector-curvature="0" />
        <text
           xml:space="preserve"
           style="font-size:16px;font-style:normal;font-variant:normal;font-weight:normal;font-stretch:normal;text-align:center;line-height:125%;letter-spacing:0px;word-spacing:0px;writing-mode:lr-tb;text-anchor:middle;fill:#000000;fill-opacity:1;stroke:none;font-family:Last Ninja;-inkscape-font-specification:Last Ninja"
           x="342.96292"
           y="94.457657"
           id="text4567-6-9"
           sodipodi:linespacing="125%"><tspan
             sodipodi:role="line"
             id="tspan4569-2-8"
             x="342.96292"
             y="94.457657">M</tspan></text>
        <text
           xml:space="preserve"
           style="font-size:4px;font-style:normal;font-variant:normal;font-weight:normal;font-stretch:normal;text-align:start;line-height:125%;letter-spacing:0px;word-spacing:0px;writing-mode:lr-tb;text-anchor:start;fill:#000000;fill-opacity:1;stroke:none;font-family:Last Ninja;-inkscape-font-specification:Last Ninja;opacity:0.60352423"
           id="text5736-4-2"
           sodipodi:linespacing="125%"
           transform="translate(-102.04491,-0.24045431)"><textPath
             xlink:href="#path4220-5-6-1"
             id="textPath5771-5-4">monkey</textPath></text>
        <use
           x="0"
           y="0"
           xlink:href="#text5736-4-2"
           id="use5776-8-5"
           transform="matrix(-1,0,0,-1,685.91008,174.24346)"
           width="744.09448"
           height="1052.3622" />
        <path
           id="path5793-3-6"
           style="fill:#000000;fill-opacity:1;fill-rule:evenodd;stroke:none;opacity:0.60352423"
           d="m 310.99998,87.362171 c 0,-8.83655 -7.16344,-15.99999 -16,-15.99999 -8.83656,0 -16,7.16344 -16,15.99999 0,8.836557 7.16344,16.000009 16,16.000009 8.83656,0 16,-7.163452 16,-16.000009 z m 4,0 c 0,-11.0457 -8.95431,-19.99999 -20,-19.99999 -11.04569,0 -20,8.95429 -20,19.99999 0,11.045697 8.95431,20.000009 20,20.000009 11.04569,0 20,-8.954312 20,-20.000009 z"
           inkscape:connector-curvature="0" />
        <text
           xml:space="preserve"
           style="font-size:16px;font-style:normal;font-variant:normal;font-weight:normal;font-stretch:normal;text-align:center;line-height:125%;letter-spacing:0px;word-spacing:0px;writing-mode:lr-tb;text-anchor:middle;fill:#000000;fill-opacity:1;stroke:none;font-family:Last Ninja;-inkscape-font-specification:Last Ninja"
           x="295.00781"
           y="94.69812"
           id="text4567-6-2"
           sodipodi:linespacing="125%"><tspan
             sodipodi:role="line"
             id="tspan4569-2-3"
             x="295.00781"
             y="94.69812">t</tspan></text>
        <text
           xml:space="preserve"
           style="font-size:4px;font-style:normal;font-variant:normal;font-weight:normal;font-stretch:normal;text-align:start;line-height:125%;letter-spacing:0px;word-spacing:0px;writing-mode:lr-tb;text-anchor:start;fill:#000000;fill-opacity:1;stroke:none;font-family:Last Ninja;-inkscape-font-specification:Last Ninja;opacity:0.60352423"
           id="text5736-4-8"
           sodipodi:linespacing="125%"
           transform="translate(-150.00002,8.9496841e-6)"><textPath
             xlink:href="#path4220-5-6-8"
             id="textPath5771-5-2">tiger</textPath></text>
        <use
           x="0"
           y="0"
           xlink:href="#text5736-4-8"
           id="use5776-8-6"
           transform="matrix(-1,0,0,-1,589.99986,174.72438)"
           width="744.09448"
           height="1052.3622" />
        <path
           id="path5793-3-5"
           style="fill:#000000;fill-opacity:1;fill-rule:evenodd;stroke:none;opacity:0.60352423"
           d="m 260.99998,87.362174 c 0,-8.83655 -7.16344,-15.99999 -16,-15.99999 -8.83656,0 -16,7.16344 -16,15.99999 0,8.836557 7.16344,16.000006 16,16.000006 8.83656,0 16,-7.163449 16,-16.000006 z m 4,0 c 0,-11.0457 -8.95431,-19.99999 -20,-19.99999 -11.04569,0 -20,8.95429 -20,19.99999 0,11.045697 8.95431,20.000006 20,20.000006 11.04569,0 20,-8.954309 20,-20.000006 z"
           inkscape:connector-curvature="0" />
        <text
           xml:space="preserve"
           style="font-size:16px;font-style:normal;font-variant:normal;font-weight:normal;font-stretch:normal;text-align:center;line-height:125%;letter-spacing:0px;word-spacing:0px;writing-mode:lr-tb;text-anchor:middle;fill:#000000;fill-opacity:1;stroke:none;font-family:Last Ninja;-inkscape-font-specification:Last Ninja"
           x="245.00781"
           y="94.69812"
           id="text4567-6-7"
           sodipodi:linespacing="125%"><tspan
             sodipodi:role="line"
             id="tspan4569-2-82"
             x="245.00781"
             y="94.69812">p</tspan></text>
        <text
           xml:space="preserve"
           style="font-size:4px;font-style:normal;font-variant:normal;font-weight:normal;font-stretch:normal;text-align:start;line-height:125%;letter-spacing:0px;word-spacing:0px;writing-mode:lr-tb;text-anchor:start;fill:#000000;fill-opacity:1;stroke:none;font-family:Last Ninja;-inkscape-font-specification:Last Ninja;opacity:0.60352423"
           id="text5736-4-7"
           sodipodi:linespacing="125%"
           transform="translate(-200.00002,1.1908594e-5)"><textPath
             xlink:href="#path4220-5-6-2"
             id="textPath5771-5-8">panda</textPath></text>
        <use
           x="0"
           y="0"
           xlink:href="#text5736-4-7"
           id="use5776-8-0"
           transform="matrix(-1,0,0,-1,489.99986,174.72438)"
           width="744.09448"
           height="1052.3622" />
        <path
           id="path5793-3-8"
           style="fill:#000000;fill-opacity:1;fill-rule:evenodd;stroke:none;opacity:0.60352423"
           d="m 208.95509,87.121708 c 0,-8.83655 -7.16344,-15.99999 -16,-15.99999 -8.83656,0 -16,7.16344 -16,15.99999 0,8.836558 7.16344,16.000012 16,16.000012 8.83656,0 16,-7.163454 16,-16.000012 z m 4,0 c 0,-11.0457 -8.95431,-19.99999 -20,-19.99999 -11.04569,0 -20,8.95429 -20,19.99999 0,11.045698 8.95431,20.000012 20,20.000012 11.04569,0 20,-8.954314 20,-20.000012 z"
           inkscape:connector-curvature="0" />
        <text
           xml:space="preserve"
           style="font-size:16px;font-style:normal;font-variant:normal;font-weight:normal;font-stretch:normal;text-align:center;line-height:125%;letter-spacing:0px;word-spacing:0px;writing-mode:lr-tb;text-anchor:middle;fill:#000000;fill-opacity:1;stroke:none;font-family:Last Ninja;-inkscape-font-specification:Last Ninja"
           x="192.96292"
           y="94.457657"
           id="text4567-6-78"
           sodipodi:linespacing="125%"><tspan
             sodipodi:role="line"
             id="tspan4569-2-1"
             x="192.96292"
             y="94.457657">e</tspan></text>
        <text
           xml:space="preserve"
           style="font-size:4px;font-style:normal;font-variant:normal;font-weight:normal;font-stretch:normal;text-align:start;line-height:125%;letter-spacing:0px;word-spacing:0px;writing-mode:lr-tb;text-anchor:start;fill:#000000;fill-opacity:1;stroke:none;font-family:Last Ninja;-inkscape-font-specification:Last Ninja;opacity:0.60352423"
           id="text5736-4-6"
           sodipodi:linespacing="125%"
           transform="translate(-252.04491,-0.24045431)"><textPath
             xlink:href="#path4220-5-6-7"
             id="textPath5771-5-0">elephant</textPath></text>
        <use
           x="0"
           y="0"
           xlink:href="#text5736-4-6"
           id="use5776-8-9"
           transform="matrix(-1,0,0,-1,385.91008,174.24346)"
           width="744.09448"
           height="1052.3622" />
        <path
           id="path5793-3-9"
           style="fill:#000000;fill-opacity:1;fill-rule:evenodd;stroke:none;opacity:0.60352423"
           d="m 160.99998,87.362171 c 0,-8.836547 -7.16344,-15.999987 -16,-15.999987 -8.83656,0 -16,7.16344 -16,15.999987 0,8.83656 7.16344,16.000009 16,16.000009 8.83656,0 16,-7.163449 16,-16.000009 z m 4,0 c 0,-11.045697 -8.95431,-19.999987 -20,-19.999987 -11.04569,0 -20,8.95429 -20,19.999987 0,11.0457 8.95431,20.000009 20,20.000009 11.04569,0 20,-8.954309 20,-20.000009 z"
           inkscape:connector-curvature="0" />
        <text
           xml:space="preserve"
           style="font-size:16px;font-style:normal;font-variant:normal;font-weight:normal;font-stretch:normal;text-align:center;line-height:125%;letter-spacing:0px;word-spacing:0px;writing-mode:lr-tb;text-anchor:middle;fill:#000000;fill-opacity:1;stroke:none;font-family:Last Ninja;-inkscape-font-specification:Last Ninja"
           x="145.00781"
           y="94.69812"
           id="text4567-6-0"
           sodipodi:linespacing="125%"><tspan
             sodipodi:role="line"
             id="tspan4569-2-0"
             x="145.00781"
             y="94.69812">D</tspan></text>
        <text
           xml:space="preserve"
           style="font-size:4px;font-style:normal;font-variant:normal;font-weight:normal;font-stretch:normal;text-align:start;line-height:125%;letter-spacing:0px;word-spacing:0px;writing-mode:lr-tb;text-anchor:start;fill:#000000;fill-opacity:1;stroke:none;font-family:Last Ninja;-inkscape-font-specification:Last Ninja;opacity:0.60352423"
           id="text5736-4-0"
           sodipodi:linespacing="125%"
           transform="translate(-300.00002,1.2308594e-5)"><textPath
             xlink:href="#path4220-5-6-5"
             id="textPath5771-5-7">dragon</textPath></text>
        <use
           x="0"
           y="0"
           xlink:href="#text5736-4-0"
           id="use5776-8-2"
           transform="matrix(-1,0,0,-1,289.99986,174.72438)"
           width="744.09448"
           height="1052.3622" />
      </g>
      <use
         x="0"
         y="0"
         xlink:href="#g6198"
         id="use6303"
         transform="translate(2e-5,50.000003)"
         width="744.09448"
         height="1052.3622" />
      <use
         x="0"
         y="0"
         xlink:href="#g6198"
         id="use6305"
         transform="translate(2e-5,100)"
         width="744.09448"
         height="1052.3622" />
    </g>
  </g>
</svg>
