<?xml version="1.0" encoding="UTF-8" standalone="no"?>
<!-- Created with Inkscape (http://www.inkscape.org/) -->

<svg
   xmlns:osb="http://www.openswatchbook.org/uri/2009/osb"
   xmlns:dc="http://purl.org/dc/elements/1.1/"
   xmlns:cc="http://creativecommons.org/ns#"
   xmlns:rdf="http://www.w3.org/1999/02/22-rdf-syntax-ns#"
   xmlns:svg="http://www.w3.org/2000/svg"
   xmlns="http://www.w3.org/2000/svg"
   xmlns:xlink="http://www.w3.org/1999/xlink"
   xmlns:sodipodi="http://sodipodi.sourceforge.net/DTD/sodipodi-0.dtd"
   xmlns:inkscape="http://www.inkscape.org/namespaces/inkscape"
   width="744.09448819"
   height="1052.3622047"
   id="svg3165"
   version="1.1"
   inkscape:version="0.48.4 r9939"
   sodipodi:docname="pieces.svg"
   inkscape:export-filename="C:\Users\SLiV\Dropbox\Hemel en Aarde\pieces.png"
   inkscape:export-xdpi="182"
   inkscape:export-ydpi="182">
  <defs
     id="defs3167">
    <linearGradient
       id="linearGradient4222"
       osb:paint="solid">
      <stop
         style="stop-color:#c5c5c5;stop-opacity:1;"
         offset="0"
         id="stop4224" />
    </linearGradient>
    <path
       id="path4220-5-1"
       style="fill:#000000;fill-opacity:1;fill-rule:evenodd;stroke:none"
       d="m 461,87.362172 c 0,-8.83655 -7.16344,-15.99999 -16,-15.99999 -8.83656,0 -16,7.16344 -16,15.99999 0,8.83656 7.16344,16.000008 16,16.000008 8.83656,0 16,-7.163448 16,-16.000008 z m 4,0 c 0,-11.0457 -8.95431,-19.99999 -20,-19.99999 -11.04569,0 -20,8.95429 -20,19.99999 0,11.0457 8.95431,20.000008 20,20.000008 11.04569,0 20,-8.954308 20,-20.000008 z"
       inkscape:connector-curvature="0" />
    <path
       id="path5791"
       style="fill:#000000;fill-opacity:1;fill-rule:evenodd;stroke:none"
       d="m 461,87.362172 c 0,-8.83655 -7.16344,-15.99999 -16,-15.99999 -8.83656,0 -16,7.16344 -16,15.99999 0,8.83656 7.16344,16.000008 16,16.000008 8.83656,0 16,-7.163448 16,-16.000008 z m 4,0 c 0,-11.0457 -8.95431,-19.99999 -20,-19.99999 -11.04569,0 -20,8.95429 -20,19.99999 0,11.0457 8.95431,20.000008 20,20.000008 11.04569,0 20,-8.954308 20,-20.000008 z"
       inkscape:connector-curvature="0" />
    <path
       id="path4220-5-6"
       style="fill:#000000;fill-opacity:1;fill-rule:evenodd;stroke:none"
       d="m 461,87.362172 c 0,-8.83655 -7.16344,-15.99999 -16,-15.99999 -8.83656,0 -16,7.16344 -16,15.99999 0,8.83656 7.16344,16.000008 16,16.000008 8.83656,0 16,-7.163448 16,-16.000008 z m 4,0 c 0,-11.0457 -8.95431,-19.99999 -20,-19.99999 -11.04569,0 -20,8.95429 -20,19.99999 0,11.0457 8.95431,20.000008 20,20.000008 11.04569,0 20,-8.954308 20,-20.000008 z"
       inkscape:connector-curvature="0" />
    <path
       id="path5791-0"
       style="fill:#000000;fill-opacity:1;fill-rule:evenodd;stroke:none"
       d="m 461,87.362172 c 0,-8.83655 -7.16344,-15.99999 -16,-15.99999 -8.83656,0 -16,7.16344 -16,15.99999 0,8.83656 7.16344,16.000008 16,16.000008 8.83656,0 16,-7.163448 16,-16.000008 z m 4,0 c 0,-11.0457 -8.95431,-19.99999 -20,-19.99999 -11.04569,0 -20,8.95429 -20,19.99999 0,11.0457 8.95431,20.000008 20,20.000008 11.04569,0 20,-8.954308 20,-20.000008 z"
       inkscape:connector-curvature="0" />
    <path
       id="path4220-5-6-1"
       style="fill:#000000;fill-opacity:1;fill-rule:evenodd;stroke:none"
       d="m 461,87.362172 c 0,-8.83655 -7.16344,-15.99999 -16,-15.99999 -8.83656,0 -16,7.16344 -16,15.99999 0,8.83656 7.16344,16.000008 16,16.000008 8.83656,0 16,-7.163448 16,-16.000008 z m 4,0 c 0,-11.0457 -8.95431,-19.99999 -20,-19.99999 -11.04569,0 -20,8.95429 -20,19.99999 0,11.0457 8.95431,20.000008 20,20.000008 11.04569,0 20,-8.954308 20,-20.000008 z"
       inkscape:connector-curvature="0" />
    <path
       id="path5921"
       style="fill:#000000;fill-opacity:1;fill-rule:evenodd;stroke:none"
       d="m 461,87.362172 c 0,-8.83655 -7.16344,-15.99999 -16,-15.99999 -8.83656,0 -16,7.16344 -16,15.99999 0,8.83656 7.16344,16.000008 16,16.000008 8.83656,0 16,-7.163448 16,-16.000008 z m 4,0 c 0,-11.0457 -8.95431,-19.99999 -20,-19.99999 -11.04569,0 -20,8.95429 -20,19.99999 0,11.0457 8.95431,20.000008 20,20.000008 11.04569,0 20,-8.954308 20,-20.000008 z"
       inkscape:connector-curvature="0" />
    <path
       id="path4220-5-6-8"
       style="fill:#000000;fill-opacity:1;fill-rule:evenodd;stroke:none"
       d="m 461,87.362172 c 0,-8.83655 -7.16344,-15.99999 -16,-15.99999 -8.83656,0 -16,7.16344 -16,15.99999 0,8.83656 7.16344,16.000008 16,16.000008 8.83656,0 16,-7.163448 16,-16.000008 z m 4,0 c 0,-11.0457 -8.95431,-19.99999 -20,-19.99999 -11.04569,0 -20,8.95429 -20,19.99999 0,11.0457 8.95431,20.000008 20,20.000008 11.04569,0 20,-8.954308 20,-20.000008 z"
       inkscape:connector-curvature="0" />
    <path
       id="path5921-6"
       style="fill:#000000;fill-opacity:1;fill-rule:evenodd;stroke:none"
       d="m 461,87.362172 c 0,-8.83655 -7.16344,-15.99999 -16,-15.99999 -8.83656,0 -16,7.16344 -16,15.99999 0,8.83656 7.16344,16.000008 16,16.000008 8.83656,0 16,-7.163448 16,-16.000008 z m 4,0 c 0,-11.0457 -8.95431,-19.99999 -20,-19.99999 -11.04569,0 -20,8.95429 -20,19.99999 0,11.0457 8.95431,20.000008 20,20.000008 11.04569,0 20,-8.954308 20,-20.000008 z"
       inkscape:connector-curvature="0" />
    <path
       id="path4220-5-6-2"
       style="fill:#000000;fill-opacity:1;fill-rule:evenodd;stroke:none"
       d="m 461,87.362172 c 0,-8.83655 -7.16344,-15.99999 -16,-15.99999 -8.83656,0 -16,7.16344 -16,15.99999 0,8.83656 7.16344,16.000008 16,16.000008 8.83656,0 16,-7.163448 16,-16.000008 z m 4,0 c 0,-11.0457 -8.95431,-19.99999 -20,-19.99999 -11.04569,0 -20,8.95429 -20,19.99999 0,11.0457 8.95431,20.000008 20,20.000008 11.04569,0 20,-8.954308 20,-20.000008 z"
       inkscape:connector-curvature="0" />
    <path
       id="path5921-7"
       style="fill:#000000;fill-opacity:1;fill-rule:evenodd;stroke:none"
       d="m 461,87.362172 c 0,-8.83655 -7.16344,-15.99999 -16,-15.99999 -8.83656,0 -16,7.16344 -16,15.99999 0,8.83656 7.16344,16.000008 16,16.000008 8.83656,0 16,-7.163448 16,-16.000008 z m 4,0 c 0,-11.0457 -8.95431,-19.99999 -20,-19.99999 -11.04569,0 -20,8.95429 -20,19.99999 0,11.0457 8.95431,20.000008 20,20.000008 11.04569,0 20,-8.954308 20,-20.000008 z"
       inkscape:connector-curvature="0" />
    <path
       id="path4220-5-6-7"
       style="fill:#000000;fill-opacity:1;fill-rule:evenodd;stroke:none"
       d="m 461,87.362172 c 0,-8.83655 -7.16344,-15.99999 -16,-15.99999 -8.83656,0 -16,7.16344 -16,15.99999 0,8.83656 7.16344,16.000008 16,16.000008 8.83656,0 16,-7.163448 16,-16.000008 z m 4,0 c 0,-11.0457 -8.95431,-19.99999 -20,-19.99999 -11.04569,0 -20,8.95429 -20,19.99999 0,11.0457 8.95431,20.000008 20,20.000008 11.04569,0 20,-8.954308 20,-20.000008 z"
       inkscape:connector-curvature="0" />
    <path
       id="path5921-67"
       style="fill:#000000;fill-opacity:1;fill-rule:evenodd;stroke:none"
       d="m 461,87.362172 c 0,-8.83655 -7.16344,-15.99999 -16,-15.99999 -8.83656,0 -16,7.16344 -16,15.99999 0,8.83656 7.16344,16.000008 16,16.000008 8.83656,0 16,-7.163448 16,-16.000008 z m 4,0 c 0,-11.0457 -8.95431,-19.99999 -20,-19.99999 -11.04569,0 -20,8.95429 -20,19.99999 0,11.0457 8.95431,20.000008 20,20.000008 11.04569,0 20,-8.954308 20,-20.000008 z"
       inkscape:connector-curvature="0" />
    <path
       id="path4220-5-6-5"
       style="fill:#000000;fill-opacity:1;fill-rule:evenodd;stroke:none"
       d="m 461,87.362172 c 0,-8.83655 -7.16344,-15.99999 -16,-15.99999 -8.83656,0 -16,7.16344 -16,15.99999 0,8.83656 7.16344,16.000008 16,16.000008 8.83656,0 16,-7.163448 16,-16.000008 z m 4,0 c 0,-11.0457 -8.95431,-19.99999 -20,-19.99999 -11.04569,0 -20,8.95429 -20,19.99999 0,11.0457 8.95431,20.000008 20,20.000008 11.04569,0 20,-8.954308 20,-20.000008 z"
       inkscape:connector-curvature="0" />
    <path
       id="path5921-8"
       style="fill:#000000;fill-opacity:1;fill-rule:evenodd;stroke:none"
       d="m 461,87.362172 c 0,-8.83655 -7.16344,-15.99999 -16,-15.99999 -8.83656,0 -16,7.16344 -16,15.99999 0,8.83656 7.16344,16.000008 16,16.000008 8.83656,0 16,-7.163448 16,-16.000008 z m 4,0 c 0,-11.0457 -8.95431,-19.99999 -20,-19.99999 -11.04569,0 -20,8.95429 -20,19.99999 0,11.0457 8.95431,20.000008 20,20.000008 11.04569,0 20,-8.954308 20,-20.000008 z"
       inkscape:connector-curvature="0" />
  </defs>
  <sodipodi:namedview
     id="base"
     pagecolor="#ffffff"
     bordercolor="#666666"
     borderopacity="1.0"
     inkscape:pageopacity="0.0"
     inkscape:pageshadow="2"
     inkscape:zoom="5.6568544"
     inkscape:cx="451.94278"
     inkscape:cy="660.16456"
     inkscape:document-units="px"
     inkscape:current-layer="text7160-0"
     showgrid="true"
     inkscape:snap-bbox="true"
     inkscape:object-paths="false"
     inkscape:window-width="1920"
     inkscape:window-height="1028"
     inkscape:window-x="-8"
     inkscape:window-y="-8"
     inkscape:window-maximized="1"
     inkscape:snap-bbox-midpoints="true"
     inkscape:snap-nodes="true"
     inkscape:snap-center="true"
     inkscape:snap-object-midpoints="true"
     showguides="true"
     inkscape:guide-bbox="true">
    <inkscape:grid
       type="xygrid"
       id="grid3173" />
  </sodipodi:namedview>
  <metadata
     id="metadata3170">
    <rdf:RDF>
      <cc:Work
         rdf:about="">
        <dc:format>image/svg+xml</dc:format>
        <dc:type
           rdf:resource="http://purl.org/dc/dcmitype/StillImage" />
        <dc:title />
      </cc:Work>
    </rdf:RDF>
  </metadata>
  <g
     inkscape:label="Background"
     inkscape:groupmode="layer"
     id="layer1"
     sodipodi:insensitive="true">
    <rect
       style="fill-opacity:1;stroke:#808080;stroke-width:1;stroke-miterlimit:4;stroke-opacity:1;stroke-dasharray:none"
       id="rect4163"
       width="50"
       height="50"
       x="19.5"
       y="61.862183"
       inkscape:tile-cx="35"
       inkscape:tile-cy="32.362183"
       inkscape:tile-w="50"
       inkscape:tile-h="50"
       inkscape:tile-x0="10"
       inkscape:tile-y0="7.3621826" />
    <use
       x="0"
       y="0"
       inkscape:tiled-clone-of="#rect4163"
       xlink:href="#rect4163"
       transform="translate(0,50.000002)"
       id="use4167"
       style="fill:#cd3535;fill-opacity:1;stroke-width:1;stroke-miterlimit:4;stroke-dasharray:none"
       inkscape:tile-cx="35"
       inkscape:tile-cy="82.362183"
       inkscape:tile-w="50"
       inkscape:tile-h="50"
       inkscape:tile-x0="10"
       inkscape:tile-y0="57.362183"
       width="744.09448"
       height="1052.3622" />
    <use
       x="0"
       y="0"
       inkscape:tiled-clone-of="#rect4163"
       xlink:href="#rect4163"
       transform="translate(0,100)"
       id="use4169"
       style="fill:#38ca4c;fill-opacity:1;stroke-width:1;stroke-miterlimit:4;stroke-dasharray:none"
       inkscape:tile-cx="35"
       inkscape:tile-cy="132.36218"
       inkscape:tile-w="50"
       inkscape:tile-h="50"
       inkscape:tile-x0="10"
       inkscape:tile-y0="107.36218"
       width="744.09448"
       height="1052.3622" />
    <rect
       style="fill-opacity:1;stroke:#808080;stroke-width:1;stroke-miterlimit:4;stroke-opacity:1;stroke-dasharray:none"
       id="rect4185"
       width="50"
       height="50"
       x="19.5"
       y="311.86218"
       inkscape:tile-cx="35"
       inkscape:tile-cy="207.36218"
       inkscape:tile-w="50"
       inkscape:tile-h="50"
       inkscape:tile-x0="10"
       inkscape:tile-y0="182.36218" />
    <use
       x="0"
       y="0"
       inkscape:tiled-clone-of="#rect4185"
       xlink:href="#rect4185"
       transform="translate(0,49.999998)"
       id="use4189"
       style="fill:#b34f4f;fill-opacity:1"
       inkscape:tile-cx="35"
       inkscape:tile-cy="257.36218"
       inkscape:tile-w="50"
       inkscape:tile-h="50"
       inkscape:tile-x0="10"
       inkscape:tile-y0="232.36218"
       width="744.09448"
       height="1052.3622" />
    <use
       x="0"
       y="0"
       inkscape:tiled-clone-of="#rect4185"
       xlink:href="#rect4185"
       transform="translate(0,99.999998)"
       id="use4191"
       style="fill:#4eb45c;fill-opacity:1"
       inkscape:tile-cx="35"
       inkscape:tile-cy="307.36218"
       inkscape:tile-w="50"
       inkscape:tile-h="50"
       inkscape:tile-x0="10"
       inkscape:tile-y0="282.36218"
       width="744.09448"
       height="1052.3622" />
    <use
       x="0"
       y="0"
       inkscape:tiled-clone-of="#use4167"
       xlink:href="#use4167"
       transform="translate(100,2.9e-7)"
       id="use4197"
       width="744.09448"
       height="1052.3622"
       style="stroke-width:1;stroke-miterlimit:4;stroke-dasharray:none"
       inkscape:export-filename="C:\Users\SLiV\Dropbox\Hemel en Aarde\Stukken\dragonR.png"
       inkscape:export-xdpi="596.47058"
       inkscape:export-ydpi="596.47058" />
    <use
       x="0"
       y="0"
       inkscape:tiled-clone-of="#use4167"
       xlink:href="#use4167"
       transform="translate(150,2.9e-7)"
       id="use4199"
       width="744.09448"
       height="1052.3622"
       style="stroke-width:1;stroke-miterlimit:4;stroke-dasharray:none" />
    <use
       x="0"
       y="0"
       inkscape:tiled-clone-of="#use4167"
       xlink:href="#use4167"
       transform="translate(200,2.9e-7)"
       id="use4201"
       width="744.09448"
       height="1052.3622"
       style="stroke-width:1;stroke-miterlimit:4;stroke-dasharray:none" />
    <use
       x="0"
       y="0"
       inkscape:tiled-clone-of="#use4167"
       xlink:href="#use4167"
       transform="translate(250,2.9e-7)"
       id="use4203"
       width="744.09448"
       height="1052.3622"
       style="stroke-width:1;stroke-miterlimit:4;stroke-dasharray:none" />
    <use
       x="0"
       y="0"
       inkscape:tiled-clone-of="#use4167"
       xlink:href="#use4167"
       transform="translate(300,2.9e-7)"
       id="use4205"
       width="744.09448"
       height="1052.3622"
       style="stroke-width:1;stroke-miterlimit:4;stroke-dasharray:none" />
    <use
       x="0"
       y="0"
       inkscape:tiled-clone-of="#use4167"
       xlink:href="#use4167"
       transform="translate(350,2.9e-7)"
       id="use4207"
       width="744.09448"
       height="1052.3622"
       style="stroke-width:1;stroke-miterlimit:4;stroke-dasharray:none" />
    <use
       x="0"
       y="0"
       inkscape:tiled-clone-of="#use4167"
       xlink:href="#use4167"
       transform="translate(400,2.9e-7)"
       id="use4209"
       width="744.09448"
       height="1052.3622"
       style="stroke-width:1;stroke-miterlimit:4;stroke-dasharray:none" />
    <use
       x="0"
       y="0"
       inkscape:tiled-clone-of="#use4167"
       xlink:href="#use4167"
       transform="translate(450,2.9e-7)"
       id="use4211"
       width="744.09448"
       height="1052.3622"
       style="stroke-width:1;stroke-miterlimit:4;stroke-dasharray:none" />
    <use
       x="0"
       y="0"
       inkscape:tiled-clone-of="#use4169"
       xlink:href="#use4169"
       transform="translate(100,2.9e-7)"
       id="use4217"
       width="744.09448"
       height="1052.3622"
       style="stroke-width:1;stroke-miterlimit:4;stroke-dasharray:none" />
    <use
       x="0"
       y="0"
       inkscape:tiled-clone-of="#use4169"
       xlink:href="#use4169"
       transform="translate(150,2.9e-7)"
       id="use4219"
       width="744.09448"
       height="1052.3622"
       style="stroke-width:1;stroke-miterlimit:4;stroke-dasharray:none" />
    <use
       x="0"
       y="0"
       inkscape:tiled-clone-of="#use4169"
       xlink:href="#use4169"
       transform="translate(200,2.9e-7)"
       id="use4221"
       width="744.09448"
       height="1052.3622"
       style="stroke-width:1;stroke-miterlimit:4;stroke-dasharray:none" />
    <use
       x="0"
       y="0"
       inkscape:tiled-clone-of="#use4169"
       xlink:href="#use4169"
       transform="translate(250,2.9e-7)"
       id="use4223"
       width="744.09448"
       height="1052.3622"
       style="stroke-width:1;stroke-miterlimit:4;stroke-dasharray:none" />
    <use
       x="0"
       y="0"
       inkscape:tiled-clone-of="#use4169"
       xlink:href="#use4169"
       transform="translate(300,2.9e-7)"
       id="use4225"
       width="744.09448"
       height="1052.3622"
       style="stroke-width:1;stroke-miterlimit:4;stroke-dasharray:none" />
    <use
       x="0"
       y="0"
       inkscape:tiled-clone-of="#use4169"
       xlink:href="#use4169"
       transform="translate(350,2.9e-7)"
       id="use4227"
       width="744.09448"
       height="1052.3622"
       style="stroke-width:1;stroke-miterlimit:4;stroke-dasharray:none"
       inkscape:export-filename="C:\Users\SLiV\Dropbox\Hemel en Aarde\Stukken\nightingaleG.png"
       inkscape:export-xdpi="596.47058"
       inkscape:export-ydpi="596.47058" />
    <use
       x="0"
       y="0"
       inkscape:tiled-clone-of="#use4169"
       xlink:href="#use4169"
       transform="translate(400,2.9e-7)"
       id="use4229"
       width="744.09448"
       height="1052.3622"
       style="stroke-width:1;stroke-miterlimit:4;stroke-dasharray:none" />
    <use
       x="0"
       y="0"
       inkscape:tiled-clone-of="#use4169"
       xlink:href="#use4169"
       transform="translate(450,2.9e-7)"
       id="use4231"
       width="744.09448"
       height="1052.3622"
       style="stroke-width:1;stroke-miterlimit:4;stroke-dasharray:none" />
    <use
       x="0"
       y="0"
       inkscape:tiled-clone-of="#use4189"
       xlink:href="#use4189"
       transform="translate(100,-1.6101562e-6)"
       id="use4237"
       width="744.09448"
       height="1052.3622" />
    <use
       x="0"
       y="0"
       inkscape:tiled-clone-of="#use4189"
       xlink:href="#use4189"
       transform="translate(150,-1.6101562e-6)"
       id="use4239"
       width="744.09448"
       height="1052.3622" />
    <use
       x="0"
       y="0"
       inkscape:tiled-clone-of="#use4189"
       xlink:href="#use4189"
       transform="translate(200,-1.6101562e-6)"
       id="use4241"
       width="744.09448"
       height="1052.3622" />
    <use
       x="0"
       y="0"
       inkscape:tiled-clone-of="#use4189"
       xlink:href="#use4189"
       transform="translate(250,-1.6101562e-6)"
       id="use4243"
       width="744.09448"
       height="1052.3622" />
    <use
       x="0"
       y="0"
       inkscape:tiled-clone-of="#use4189"
       xlink:href="#use4189"
       transform="translate(300,-1.6101562e-6)"
       id="use4245"
       width="744.09448"
       height="1052.3622" />
    <use
       x="0"
       y="0"
       inkscape:tiled-clone-of="#use4189"
       xlink:href="#use4189"
       transform="translate(350,-1.6101562e-6)"
       id="use4247"
       width="744.09448"
       height="1052.3622" />
    <use
       x="0"
       y="0"
       inkscape:tiled-clone-of="#use4189"
       xlink:href="#use4189"
       transform="translate(400,-1.6101562e-6)"
       id="use4249"
       width="744.09448"
       height="1052.3622" />
    <use
       x="0"
       y="0"
       inkscape:tiled-clone-of="#use4189"
       xlink:href="#use4189"
       transform="translate(450,-1.6101562e-6)"
       id="use4251"
       width="744.09448"
       height="1052.3622" />
    <use
       x="0"
       y="0"
       inkscape:tiled-clone-of="#use4191"
       xlink:href="#use4191"
       transform="translate(100,-1.6101562e-6)"
       id="use4257"
       width="744.09448"
       height="1052.3622" />
    <use
       x="0"
       y="0"
       inkscape:tiled-clone-of="#use4191"
       xlink:href="#use4191"
       transform="translate(150,-1.6101562e-6)"
       id="use4259"
       width="744.09448"
       height="1052.3622" />
    <use
       x="0"
       y="0"
       inkscape:tiled-clone-of="#use4191"
       xlink:href="#use4191"
       transform="translate(200,-1.6101562e-6)"
       id="use4261"
       width="744.09448"
       height="1052.3622" />
    <use
       x="0"
       y="0"
       inkscape:tiled-clone-of="#use4191"
       xlink:href="#use4191"
       transform="translate(250,-1.6101562e-6)"
       id="use4263"
       width="744.09448"
       height="1052.3622" />
    <use
       x="0"
       y="0"
       inkscape:tiled-clone-of="#use4191"
       xlink:href="#use4191"
       transform="translate(300,-1.6101562e-6)"
       id="use4265"
       width="744.09448"
       height="1052.3622" />
    <use
       x="0"
       y="0"
       inkscape:tiled-clone-of="#use4191"
       xlink:href="#use4191"
       transform="translate(350,-1.6101562e-6)"
       id="use4267"
       width="744.09448"
       height="1052.3622" />
    <use
       x="0"
       y="0"
       inkscape:tiled-clone-of="#use4191"
       xlink:href="#use4191"
       transform="translate(400,-1.6101562e-6)"
       id="use4269"
       width="744.09448"
       height="1052.3622" />
    <use
       x="0"
       y="0"
       inkscape:tiled-clone-of="#use4191"
       xlink:href="#use4191"
       transform="translate(450,-1.6101562e-6)"
       id="use4271"
       width="744.09448"
       height="1052.3622" />
    <text
       xml:space="preserve"
       style="font-size:40px;font-style:normal;font-weight:normal;line-height:125%;letter-spacing:0px;word-spacing:0px;fill:#000000;fill-opacity:1;stroke:none;font-family:Sans"
       x="18.4375"
       y="301.89343"
       id="text4273"
       sodipodi:linespacing="125%"><tspan
         sodipodi:role="line"
         id="tspan4275"
         x="18.4375"
         y="301.89343">characters</tspan></text>
    <text
       xml:space="preserve"
       style="font-size:40px;font-style:normal;font-weight:normal;line-height:125%;letter-spacing:0px;word-spacing:0px;fill:#000000;fill-opacity:1;stroke:none;font-family:Sans"
       x="20"
       y="52.362183"
       id="text4277"
       sodipodi:linespacing="125%"><tspan
         sodipodi:role="line"
         id="tspan4279"
         x="20"
         y="52.362183">bodies</tspan><tspan
         sodipodi:role="line"
         x="20"
         y="102.36218"
         id="tspan4281" /></text>
  </g>
  <g
     inkscape:groupmode="layer"
     id="layer3"
     inkscape:label="Ringen" />
  <g
     inkscape:groupmode="layer"
     id="layer2"
     inkscape:label="Letters">
    <g
       id="g6198">
      <path
         inkscape:connector-curvature="0"
         d="m 411,87.362174 c 0,-8.83655 -7.16344,-15.99999 -16,-15.99999 -8.83656,0 -16,7.16344 -16,15.99999 0,8.836557 7.16344,16.000006 16,16.000006 8.83656,0 16,-7.163449 16,-16.000006 z m 4,0 c 0,-11.0457 -8.95431,-19.99999 -20,-19.99999 -11.04569,0 -20,8.95429 -20,19.99999 0,11.045697 8.95431,20.000006 20,20.000006 11.04569,0 20,-8.954309 20,-20.000006 z"
         style="opacity:1;fill:#000000;fill-opacity:1;fill-rule:evenodd;stroke:none"
         id="path5793" />
      <text
         sodipodi:linespacing="125%"
         id="text4567-2"
         y="94.69812"
         x="395.00781"
         style="font-size:16px;font-style:normal;font-variant:normal;font-weight:normal;font-stretch:normal;text-align:center;line-height:125%;letter-spacing:0px;word-spacing:0px;writing-mode:lr-tb;text-anchor:middle;fill:#000000;fill-opacity:1;stroke:none;font-family:Last Ninja;-inkscape-font-specification:Last Ninja;opacity:1"
         xml:space="preserve"><tspan
           y="94.69812"
           x="395.00781"
           id="tspan4569-6"
           sodipodi:role="line">N</tspan></text>
      <text
         transform="translate(-50,1.8543751e-6)"
         sodipodi:linespacing="125%"
         id="text5736-0"
         style="font-size:4px;font-style:normal;font-variant:normal;font-weight:normal;font-stretch:normal;text-align:start;line-height:125%;letter-spacing:0px;word-spacing:0px;writing-mode:lr-tb;text-anchor:start;opacity:1;fill:#000000;fill-opacity:1;stroke:none;font-family:Last Ninja;-inkscape-font-specification:Last Ninja"
         xml:space="preserve"><textPath
           id="textPath5771-4"
           xlink:href="#path4220-5-1"><tspan
   style="fill:#000000;fill-opacity:1"
   id="tspan5738-9">nightingalE</tspan></textPath></text>
      <use
         height="1052.3622"
         width="744.09448"
         transform="matrix(-1,0,0,-1,789.9999,174.72438)"
         id="use5776-4"
         xlink:href="#text5736-0"
         y="0"
         x="0"
         style="opacity:1" />
      <path
         inkscape:connector-curvature="0"
         d="m 461,87.362172 c 0,-8.83655 -7.16344,-15.99999 -16,-15.99999 -8.83656,0 -16,7.16344 -16,15.99999 0,8.83656 7.16344,15.999998 16,15.999998 8.83656,0 16,-7.163438 16,-15.999998 z m 4,0 c 0,-11.0457 -8.95431,-19.99999 -20,-19.99999 -11.04569,0 -20,8.95429 -20,19.99999 0,11.0457 8.95431,19.999998 20,19.999998 11.04569,0 20,-8.954298 20,-19.999998 z"
         style="opacity:1;fill:#000000;fill-opacity:1;fill-rule:evenodd;stroke:none"
         id="path5793-3" />
      <text
         sodipodi:linespacing="125%"
         id="text4567-6"
         y="94.69812"
         x="445.00781"
         style="font-size:16px;font-style:normal;font-variant:normal;font-weight:normal;font-stretch:normal;text-align:center;line-height:125%;letter-spacing:0px;word-spacing:0px;writing-mode:lr-tb;text-anchor:middle;fill:#000000;fill-opacity:1;stroke:none;font-family:Last Ninja;-inkscape-font-specification:Last Ninja;opacity:1"
         xml:space="preserve"><tspan
           y="94.69812"
           x="445.00781"
           id="tspan4569-2"
           sodipodi:role="line">L</tspan></text>
      <text
         transform="translate(-1.3427734e-5,1.0192559e-5)"
         sodipodi:linespacing="125%"
         id="text5736-4"
         style="font-size:4px;font-style:normal;font-variant:normal;font-weight:normal;font-stretch:normal;text-align:start;line-height:125%;letter-spacing:0px;word-spacing:0px;writing-mode:lr-tb;text-anchor:start;opacity:1;fill:#000000;fill-opacity:1;stroke:none;font-family:Last Ninja;-inkscape-font-specification:Last Ninja"
         xml:space="preserve"><textPath
           id="textPath5771-5"
           xlink:href="#path4220-5-6">Lotus</textPath></text>
      <use
         height="1052.3622"
         width="744.09448"
         transform="matrix(-1,0,0,-1,889.99989,174.72437)"
         id="use5776-8"
         xlink:href="#text5736-4"
         y="0"
         x="0"
         style="opacity:1" />
      <path
         inkscape:connector-curvature="0"
         d="m 358.95509,87.121708 c 0,-8.83655 -7.16344,-15.99999 -16,-15.99999 -8.83656,0 -16,7.16344 -16,15.99999 0,8.83656 7.16344,16.000012 16,16.000012 8.83656,0 16,-7.163452 16,-16.000012 z m 4,0 c 0,-11.0457 -8.95431,-19.99999 -20,-19.99999 -11.04569,0 -20,8.95429 -20,19.99999 0,11.0457 8.95431,20.000012 20,20.000012 11.04569,0 20,-8.954312 20,-20.000012 z"
         style="opacity:1;fill:#000000;fill-opacity:1;fill-rule:evenodd;stroke:none"
         id="path5793-3-4" />
      <text
         sodipodi:linespacing="125%"
         id="text4567-6-9"
         y="94.457657"
         x="342.96292"
         style="font-size:16px;font-style:normal;font-variant:normal;font-weight:normal;font-stretch:normal;text-align:center;line-height:125%;letter-spacing:0px;word-spacing:0px;writing-mode:lr-tb;text-anchor:middle;fill:#000000;fill-opacity:1;stroke:none;font-family:Last Ninja;-inkscape-font-specification:Last Ninja;opacity:1"
         xml:space="preserve"><tspan
           y="94.457657"
           x="342.96292"
           id="tspan4569-2-8"
           sodipodi:role="line">M</tspan></text>
      <text
         transform="translate(-102.04491,-0.24045431)"
         sodipodi:linespacing="125%"
         id="text5736-4-2"
         style="font-size:4px;font-style:normal;font-variant:normal;font-weight:normal;font-stretch:normal;text-align:start;line-height:125%;letter-spacing:0px;word-spacing:0px;writing-mode:lr-tb;text-anchor:start;opacity:1;fill:#000000;fill-opacity:1;stroke:none;font-family:Last Ninja;-inkscape-font-specification:Last Ninja"
         xml:space="preserve"><textPath
           id="textPath5771-5-4"
           xlink:href="#path4220-5-6-1">monkey</textPath></text>
      <use
         height="1052.3622"
         width="744.09448"
         transform="matrix(-1,0,0,-1,685.91008,174.24346)"
         id="use5776-8-5"
         xlink:href="#text5736-4-2"
         y="0"
         x="0"
         style="opacity:1" />
      <path
         inkscape:connector-curvature="0"
         d="m 310.99998,87.362171 c 0,-8.83655 -7.16344,-15.99999 -16,-15.99999 -8.83656,0 -16,7.16344 -16,15.99999 0,8.836557 7.16344,16.000009 16,16.000009 8.83656,0 16,-7.163452 16,-16.000009 z m 4,0 c 0,-11.0457 -8.95431,-19.99999 -20,-19.99999 -11.04569,0 -20,8.95429 -20,19.99999 0,11.045697 8.95431,20.000009 20,20.000009 11.04569,0 20,-8.954312 20,-20.000009 z"
         style="opacity:1;fill:#000000;fill-opacity:1;fill-rule:evenodd;stroke:none"
         id="path5793-3-6" />
      <text
         sodipodi:linespacing="125%"
         id="text4567-6-2"
         y="94.69812"
         x="295.00781"
         style="font-size:16px;font-style:normal;font-variant:normal;font-weight:normal;font-stretch:normal;text-align:center;line-height:125%;letter-spacing:0px;word-spacing:0px;writing-mode:lr-tb;text-anchor:middle;fill:#000000;fill-opacity:1;stroke:none;font-family:Last Ninja;-inkscape-font-specification:Last Ninja;opacity:1"
         xml:space="preserve"><tspan
           y="94.69812"
           x="295.00781"
           id="tspan4569-2-3"
           sodipodi:role="line">t</tspan></text>
      <text
         transform="translate(-150.00002,8.9496841e-6)"
         sodipodi:linespacing="125%"
         id="text5736-4-8"
         style="font-size:4px;font-style:normal;font-variant:normal;font-weight:normal;font-stretch:normal;text-align:start;line-height:125%;letter-spacing:0px;word-spacing:0px;writing-mode:lr-tb;text-anchor:start;opacity:1;fill:#000000;fill-opacity:1;stroke:none;font-family:Last Ninja;-inkscape-font-specification:Last Ninja"
         xml:space="preserve"><textPath
           id="textPath5771-5-2"
           xlink:href="#path4220-5-6-8">tiger</textPath></text>
      <use
         height="1052.3622"
         width="744.09448"
         transform="matrix(-1,0,0,-1,589.99986,174.72438)"
         id="use5776-8-6"
         xlink:href="#text5736-4-8"
         y="0"
         x="0"
         style="opacity:1" />
      <path
         inkscape:connector-curvature="0"
         d="m 260.99998,87.362174 c 0,-8.83655 -7.16344,-15.99999 -16,-15.99999 -8.83656,0 -16,7.16344 -16,15.99999 0,8.836557 7.16344,16.000006 16,16.000006 8.83656,0 16,-7.163449 16,-16.000006 z m 4,0 c 0,-11.0457 -8.95431,-19.99999 -20,-19.99999 -11.04569,0 -20,8.95429 -20,19.99999 0,11.045697 8.95431,20.000006 20,20.000006 11.04569,0 20,-8.954309 20,-20.000006 z"
         style="opacity:1;fill:#000000;fill-opacity:1;fill-rule:evenodd;stroke:none"
         id="path5793-3-5" />
      <text
         sodipodi:linespacing="125%"
         id="text4567-6-7"
         y="94.69812"
         x="245.00781"
         style="font-size:16px;font-style:normal;font-variant:normal;font-weight:normal;font-stretch:normal;text-align:center;line-height:125%;letter-spacing:0px;word-spacing:0px;writing-mode:lr-tb;text-anchor:middle;fill:#000000;fill-opacity:1;stroke:none;font-family:Last Ninja;-inkscape-font-specification:Last Ninja;opacity:1"
         xml:space="preserve"><tspan
           y="94.69812"
           x="245.00781"
           id="tspan4569-2-82"
           sodipodi:role="line">p</tspan></text>
      <text
         transform="translate(-200.00002,1.1908594e-5)"
         sodipodi:linespacing="125%"
         id="text5736-4-7"
         style="font-size:4px;font-style:normal;font-variant:normal;font-weight:normal;font-stretch:normal;text-align:start;line-height:125%;letter-spacing:0px;word-spacing:0px;writing-mode:lr-tb;text-anchor:start;opacity:1;fill:#000000;fill-opacity:1;stroke:none;font-family:Last Ninja;-inkscape-font-specification:Last Ninja"
         xml:space="preserve"><textPath
           id="textPath5771-5-8"
           xlink:href="#path4220-5-6-2">panda</textPath></text>
      <use
         height="1052.3622"
         width="744.09448"
         transform="matrix(-1,0,0,-1,489.99986,174.72438)"
         id="use5776-8-0"
         xlink:href="#text5736-4-7"
         y="0"
         x="0"
         style="opacity:1" />
      <path
         inkscape:connector-curvature="0"
         d="m 208.95509,87.121708 c 0,-8.83655 -7.16344,-15.99999 -16,-15.99999 -8.83656,0 -16,7.16344 -16,15.99999 0,8.836558 7.16344,16.000012 16,16.000012 8.83656,0 16,-7.163454 16,-16.000012 z m 4,0 c 0,-11.0457 -8.95431,-19.99999 -20,-19.99999 -11.04569,0 -20,8.95429 -20,19.99999 0,11.045698 8.95431,20.000012 20,20.000012 11.04569,0 20,-8.954314 20,-20.000012 z"
         style="opacity:1;fill:#000000;fill-opacity:1;fill-rule:evenodd;stroke:none"
         id="path5793-3-8" />
      <text
         sodipodi:linespacing="125%"
         id="text4567-6-78"
         y="94.457657"
         x="192.96292"
         style="font-size:16px;font-style:normal;font-variant:normal;font-weight:normal;font-stretch:normal;text-align:center;line-height:125%;letter-spacing:0px;word-spacing:0px;writing-mode:lr-tb;text-anchor:middle;fill:#000000;fill-opacity:1;stroke:none;font-family:Last Ninja;-inkscape-font-specification:Last Ninja;opacity:1"
         xml:space="preserve"><tspan
           y="94.457657"
           x="192.96292"
           id="tspan4569-2-1"
           sodipodi:role="line">e</tspan></text>
      <text
         transform="translate(-252.04491,-0.24045431)"
         sodipodi:linespacing="125%"
         id="text5736-4-6"
         style="font-size:4px;font-style:normal;font-variant:normal;font-weight:normal;font-stretch:normal;text-align:start;line-height:125%;letter-spacing:0px;word-spacing:0px;writing-mode:lr-tb;text-anchor:start;opacity:1;fill:#000000;fill-opacity:1;stroke:none;font-family:Last Ninja;-inkscape-font-specification:Last Ninja"
         xml:space="preserve"><textPath
           id="textPath5771-5-0"
           xlink:href="#path4220-5-6-7">elephant</textPath></text>
      <use
         height="1052.3622"
         width="744.09448"
         transform="matrix(-1,0,0,-1,385.91008,174.24346)"
         id="use5776-8-9"
         xlink:href="#text5736-4-6"
         y="0"
         x="0"
         style="opacity:1" />
      <path
         inkscape:connector-curvature="0"
         d="m 160.99998,87.362171 c 0,-8.836547 -7.16344,-15.999987 -16,-15.999987 -8.83656,0 -16,7.16344 -16,15.999987 0,8.83656 7.16344,16.000009 16,16.000009 8.83656,0 16,-7.163449 16,-16.000009 z m 4,0 c 0,-11.045697 -8.95431,-19.999987 -20,-19.999987 -11.04569,0 -20,8.95429 -20,19.999987 0,11.0457 8.95431,20.000009 20,20.000009 11.04569,0 20,-8.954309 20,-20.000009 z"
         style="opacity:1;fill:#000000;fill-opacity:1;fill-rule:evenodd;stroke:none"
         id="path5793-3-9" />
      <text
         sodipodi:linespacing="125%"
         id="text4567-6-0"
         y="94.69812"
         x="145.00781"
         style="font-size:16px;font-style:normal;font-variant:normal;font-weight:normal;font-stretch:normal;text-align:center;line-height:125%;letter-spacing:0px;word-spacing:0px;writing-mode:lr-tb;text-anchor:middle;fill:#000000;fill-opacity:1;stroke:none;font-family:Last Ninja;-inkscape-font-specification:Last Ninja;opacity:1"
         xml:space="preserve"><tspan
           y="94.69812"
           x="145.00781"
           id="tspan4569-2-0"
           sodipodi:role="line">D</tspan></text>
      <text
         transform="translate(-300.00002,1.2308594e-5)"
         sodipodi:linespacing="125%"
         id="text5736-4-0"
         style="font-size:4px;font-style:normal;font-variant:normal;font-weight:normal;font-stretch:normal;text-align:start;line-height:125%;letter-spacing:0px;word-spacing:0px;writing-mode:lr-tb;text-anchor:start;opacity:1;fill:#000000;fill-opacity:1;stroke:none;font-family:Last Ninja;-inkscape-font-specification:Last Ninja"
         xml:space="preserve"><textPath
           id="textPath5771-5-7"
           xlink:href="#path4220-5-6-5">dragon</textPath></text>
      <use
         height="1052.3622"
         width="744.09448"
         transform="matrix(-1,0,0,-1,289.99986,174.72438)"
         id="use5776-8-2"
         xlink:href="#text5736-4-0"
         y="0"
         x="0"
         style="opacity:1" />
    </g>
    <use
       height="1052.3622"
       width="744.09448"
       transform="translate(2e-5,50.000003)"
       id="use6303"
       xlink:href="#g6198"
       y="0"
       x="0" />
    <use
       height="1052.3622"
       width="744.09448"
       transform="translate(2e-5,100)"
       id="use6305"
       xlink:href="#g6198"
       y="0"
       x="0" />
    <g
       transform="translate(2e-5,250)"
       id="g6307">
      <text
         xml:space="preserve"
         style="font-size:16px;font-style:normal;font-variant:normal;font-weight:normal;font-stretch:normal;text-align:center;line-height:125%;letter-spacing:0px;word-spacing:0px;writing-mode:lr-tb;text-anchor:middle;fill:#000000;fill-opacity:1;stroke:none;font-family:Last Ninja;-inkscape-font-specification:Last Ninja;opacity:1"
         x="395.00781"
         y="94.69812"
         id="text6311"
         sodipodi:linespacing="125%"><tspan
           sodipodi:role="line"
           id="tspan6313"
           x="395.00781"
           y="94.69812">A</tspan></text>
      <text
         xml:space="preserve"
         style="font-size:4px;font-style:normal;font-variant:normal;font-weight:normal;font-stretch:normal;text-align:start;line-height:125%;letter-spacing:0px;word-spacing:0px;writing-mode:lr-tb;text-anchor:start;opacity:1;fill:#000000;fill-opacity:1;stroke:none;font-family:Last Ninja;-inkscape-font-specification:Last Ninja"
         id="text6315"
         sodipodi:linespacing="125%"
         transform="translate(-50,1.8543751e-6)"><textPath
           xlink:href="#path4220-5-1"
           id="textPath6317">aclhemist<tspan
   id="tspan6319"
   style="fill:#000000;fill-opacity:1" /></textPath></text>
      <text
         xml:space="preserve"
         style="font-size:16px;font-style:normal;font-variant:normal;font-weight:normal;font-stretch:normal;text-align:center;line-height:125%;letter-spacing:0px;word-spacing:0px;writing-mode:lr-tb;text-anchor:middle;fill:#000000;fill-opacity:1;stroke:none;font-family:Last Ninja;-inkscape-font-specification:Last Ninja;opacity:1"
         x="445.00781"
         y="94.69812"
         id="text6325"
         sodipodi:linespacing="125%"><tspan
           sodipodi:role="line"
           id="tspan6327"
           x="445.00781"
           y="94.69812">F</tspan></text>
      <text
         xml:space="preserve"
         style="font-size:4px;font-style:normal;font-variant:normal;font-weight:normal;font-stretch:normal;text-align:start;line-height:125%;letter-spacing:0px;word-spacing:0px;writing-mode:lr-tb;text-anchor:start;opacity:1;fill:#000000;fill-opacity:1;stroke:none;font-family:Last Ninja;-inkscape-font-specification:Last Ninja"
         id="text6329"
         sodipodi:linespacing="125%"
         transform="translate(-1.3427734e-5,1.0192559e-5)"><textPath
           xlink:href="#path4220-5-6"
           id="textPath6331">farmer</textPath></text>
      <text
         xml:space="preserve"
         style="font-size:16px;font-style:normal;font-variant:normal;font-weight:normal;font-stretch:normal;text-align:center;line-height:125%;letter-spacing:0px;word-spacing:0px;writing-mode:lr-tb;text-anchor:middle;fill:#000000;fill-opacity:1;stroke:none;font-family:Last Ninja;-inkscape-font-specification:Last Ninja;opacity:1"
         x="342.96292"
         y="94.457657"
         id="text6337"
         sodipodi:linespacing="125%"><tspan
           sodipodi:role="line"
           id="tspan6339"
           x="342.96292"
           y="94.457657">H</tspan></text>
      <text
         xml:space="preserve"
         style="font-size:4px;font-style:normal;font-variant:normal;font-weight:normal;font-stretch:normal;text-align:start;line-height:125%;letter-spacing:0px;word-spacing:0px;writing-mode:lr-tb;text-anchor:start;opacity:1;fill:#000000;fill-opacity:1;stroke:none;font-family:Last Ninja;-inkscape-font-specification:Last Ninja"
         id="text6341"
         sodipodi:linespacing="125%"
         transform="translate(-102.04491,-0.24045431)"><textPath
           xlink:href="#path4220-5-6-1"
           id="textPath6343">hunter</textPath></text>
      <text
         xml:space="preserve"
         style="font-size:16px;font-style:normal;font-variant:normal;font-weight:normal;font-stretch:normal;text-align:center;line-height:125%;letter-spacing:0px;word-spacing:0px;writing-mode:lr-tb;text-anchor:middle;fill:#000000;fill-opacity:1;stroke:none;font-family:Last Ninja;-inkscape-font-specification:Last Ninja;opacity:1"
         x="295.00781"
         y="94.69812"
         id="text6349"
         sodipodi:linespacing="125%"><tspan
           sodipodi:role="line"
           id="tspan6351"
           x="295.00781"
           y="94.69812">S</tspan></text>
      <text
         xml:space="preserve"
         style="font-size:4px;font-style:normal;font-variant:normal;font-weight:normal;font-stretch:normal;text-align:start;line-height:125%;letter-spacing:0px;word-spacing:0px;writing-mode:lr-tb;text-anchor:start;opacity:1;fill:#000000;fill-opacity:1;stroke:none;font-family:Last Ninja;-inkscape-font-specification:Last Ninja"
         id="text6353"
         sodipodi:linespacing="125%"
         transform="translate(-150.00002,8.9496841e-6)"><textPath
           xlink:href="#path4220-5-6-8"
           id="textPath6355">strategist</textPath></text>
      <text
         xml:space="preserve"
         style="font-size:16px;font-style:normal;font-variant:normal;font-weight:normal;font-stretch:normal;text-align:center;line-height:125%;letter-spacing:0px;word-spacing:0px;writing-mode:lr-tb;text-anchor:middle;fill:#000000;fill-opacity:1;stroke:none;font-family:Last Ninja;-inkscape-font-specification:Last Ninja;opacity:1"
         x="245.00781"
         y="94.69812"
         id="text6361"
         sodipodi:linespacing="125%"><tspan
           sodipodi:role="line"
           id="tspan6363"
           x="245.00781"
           y="94.69812">G</tspan></text>
      <text
         xml:space="preserve"
         style="font-size:4px;font-style:normal;font-variant:normal;font-weight:normal;font-stretch:normal;text-align:start;line-height:125%;letter-spacing:0px;word-spacing:0px;writing-mode:lr-tb;text-anchor:start;opacity:1;fill:#000000;fill-opacity:1;stroke:none;font-family:Last Ninja;-inkscape-font-specification:Last Ninja"
         id="text6365"
         sodipodi:linespacing="125%"
         transform="translate(-200.00002,1.1908594e-5)"><textPath
           xlink:href="#path4220-5-6-2"
           id="textPath6367">general</textPath></text>
      <text
         xml:space="preserve"
         style="font-size:16px;font-style:normal;font-variant:normal;font-weight:normal;font-stretch:normal;text-align:center;line-height:125%;letter-spacing:0px;word-spacing:0px;writing-mode:lr-tb;text-anchor:middle;fill:#000000;fill-opacity:1;stroke:none;font-family:Last Ninja;-inkscape-font-specification:Last Ninja;opacity:1"
         x="192.96292"
         y="94.457657"
         id="text6373"
         sodipodi:linespacing="125%"><tspan
           sodipodi:role="line"
           id="tspan6375"
           x="192.96292"
           y="94.457657">Q</tspan></text>
      <text
         xml:space="preserve"
         style="font-size:4px;font-style:normal;font-variant:normal;font-weight:normal;font-stretch:normal;text-align:start;line-height:125%;letter-spacing:0px;word-spacing:0px;writing-mode:lr-tb;text-anchor:start;opacity:1;fill:#000000;fill-opacity:1;stroke:none;font-family:Last Ninja;-inkscape-font-specification:Last Ninja"
         id="text6377"
         sodipodi:linespacing="125%"
         transform="translate(-252.04491,-0.24045431)"><textPath
           xlink:href="#path4220-5-6-7"
           id="textPath6379">empress</textPath></text>
      <text
         xml:space="preserve"
         style="font-size:16px;font-style:normal;font-variant:normal;font-weight:normal;font-stretch:normal;text-align:center;line-height:125%;letter-spacing:0px;word-spacing:0px;writing-mode:lr-tb;text-anchor:middle;fill:#000000;fill-opacity:1;stroke:none;font-family:Last Ninja;-inkscape-font-specification:Last Ninja;opacity:1"
         x="145.00781"
         y="94.69812"
         id="text6385"
         sodipodi:linespacing="125%"><tspan
           sodipodi:role="line"
           id="tspan6387"
           x="145.00781"
           y="94.69812">K</tspan></text>
      <text
         xml:space="preserve"
         style="font-size:4px;font-style:normal;font-variant:normal;font-weight:normal;font-stretch:normal;text-align:start;line-height:125%;letter-spacing:0px;word-spacing:0px;writing-mode:lr-tb;text-anchor:start;opacity:1;fill:#000000;fill-opacity:1;stroke:none;font-family:Last Ninja;-inkscape-font-specification:Last Ninja"
         id="text6389"
         sodipodi:linespacing="125%"
         transform="translate(-300.00002,1.2308594e-5)"><textPath
           xlink:href="#path4220-5-6-5"
           id="textPath6391">emperor</textPath></text>
      <g
         id="g6491"
         transform="matrix(-1,0,0,-1,385.91018,174.24344)"
         style="opacity:1">
        <path
           inkscape:connector-curvature="0"
           d="m 208.95509,87.121709 c 0,-8.83655 -7.16344,-15.99999 -16,-15.99999 -8.83656,0 -16,7.16344 -16,15.99999 0,8.83656 7.16344,16.000011 16,16.000011 8.83656,0 16,-7.163451 16,-16.000011 z m 4,0 c 0,-11.0457 -8.95431,-19.99999 -20,-19.99999 -11.04569,0 -20,8.95429 -20,19.99999 0,11.0457 8.95431,20.000011 20,20.000011 11.04569,0 20,-8.954311 20,-20.000011 z"
           style="opacity:1;fill:#000000;fill-opacity:1;fill-rule:evenodd;stroke:none"
           id="path6371" />
        <use
           height="1052.3622"
           width="744.09448"
           transform="translate(4.4734493e-6,4.4875623e-5)"
           id="use6489"
           xlink:href="#text6377"
           y="0"
           x="0" />
      </g>
      <g
         id="g6497"
         transform="matrix(-1,0,0,-1,289.99996,174.72436)">
        <path
           inkscape:connector-curvature="0"
           d="m 160.99998,87.362171 c 0,-8.836547 -7.16344,-15.999987 -16,-15.999987 -8.83656,0 -16,7.16344 -16,15.999987 0,8.83656 7.16344,16.000009 16,16.000009 8.83656,0 16,-7.163449 16,-16.000009 z m 4,0 c 0,-11.045697 -8.95431,-19.999987 -20,-19.999987 -11.04569,0 -20,8.95429 -20,19.999987 0,11.0457 8.95431,20.000009 20,20.000009 11.04569,0 20,-8.954309 20,-20.000009 z"
           style="opacity:1;fill:#000000;fill-opacity:1;fill-rule:evenodd;stroke:none"
           id="path6383" />
        <use
           id="use6495"
           xlink:href="#text6389"
           y="0"
           x="0"
           width="744.09448"
           height="1052.3622"
           style="opacity:1" />
      </g>
      <g
         id="g6503"
         transform="matrix(-1,0,0,-1,489.99996,174.72436)"
         style="opacity:1">
        <path
           inkscape:connector-curvature="0"
           d="m 260.99998,87.362174 c 0,-8.83655 -7.16344,-15.99999 -16,-15.99999 -8.83656,0 -16,7.16344 -16,15.99999 0,8.836557 7.16344,16.000006 16,16.000006 8.83656,0 16,-7.163449 16,-16.000006 z m 4,0 c 0,-11.0457 -8.95431,-19.99999 -20,-19.99999 -11.04569,0 -20,8.95429 -20,19.99999 0,11.045697 8.95431,20.000006 20,20.000006 11.04569,0 20,-8.954309 20,-20.000006 z"
           style="opacity:1;fill:#000000;fill-opacity:1;fill-rule:evenodd;stroke:none"
           id="path6359" />
        <use
           id="use6501"
           xlink:href="#text6365"
           y="0"
           x="0"
           width="744.09448"
           height="1052.3622" />
      </g>
      <g
         id="g6509"
         transform="matrix(-1,0,0,-1,589.99996,174.72436)"
         style="opacity:1">
        <path
           inkscape:connector-curvature="0"
           d="m 310.99998,87.362171 c 0,-8.83655 -7.16344,-15.99999 -16,-15.99999 -8.83656,0 -16,7.16344 -16,15.99999 0,8.836557 7.16344,16.000009 16,16.000009 8.83656,0 16,-7.163452 16,-16.000009 z m 4,0 c 0,-11.0457 -8.95431,-19.99999 -20,-19.99999 -11.04569,0 -20,8.95429 -20,19.99999 0,11.045697 8.95431,20.000009 20,20.000009 11.04569,0 20,-8.954312 20,-20.000009 z"
           style="opacity:1;fill:#000000;fill-opacity:1;fill-rule:evenodd;stroke:none"
           id="path6347" />
        <use
           id="use6507"
           xlink:href="#text6353"
           y="0"
           x="0"
           width="744.09448"
           height="1052.3622" />
      </g>
      <g
         id="g6515"
         transform="matrix(-1,0,0,-1,685.91018,174.24344)"
         style="opacity:1">
        <path
           inkscape:connector-curvature="0"
           d="m 358.95509,87.121708 c 0,-8.83655 -7.16344,-15.99999 -16,-15.99999 -8.83656,0 -16,7.16344 -16,15.99999 0,8.83656 7.16344,16.000012 16,16.000012 8.83656,0 16,-7.163452 16,-16.000012 z m 4,0 c 0,-11.0457 -8.95431,-19.99999 -20,-19.99999 -11.04569,0 -20,8.95429 -20,19.99999 0,11.0457 8.95431,20.000012 20,20.000012 11.04569,0 20,-8.954312 20,-20.000012 z"
           style="opacity:1;fill:#000000;fill-opacity:1;fill-rule:evenodd;stroke:none"
           id="path6335" />
        <use
           id="use6513"
           xlink:href="#text6341"
           y="0"
           x="0"
           width="744.09448"
           height="1052.3622" />
      </g>
      <g
         id="g6521"
         transform="matrix(-1,0,0,-1,790,174.72436)"
         style="opacity:1">
        <path
           inkscape:connector-curvature="0"
           d="m 411,87.362174 c 0,-8.83655 -7.16344,-15.99999 -16,-15.99999 -8.83656,0 -16,7.16344 -16,15.99999 0,8.836557 7.16344,16.000006 16,16.000006 8.83656,0 16,-7.163449 16,-16.000006 z m 4,0 c 0,-11.0457 -8.95431,-19.99999 -20,-19.99999 -11.04569,0 -20,8.95429 -20,19.99999 0,11.045697 8.95431,20.000006 20,20.000006 11.04569,0 20,-8.954309 20,-20.000006 z"
           style="opacity:1;fill:#000000;fill-opacity:1;fill-rule:evenodd;stroke:none"
           id="path6309" />
        <use
           id="use6519"
           xlink:href="#text6315"
           y="0"
           x="0"
           width="744.09448"
           height="1052.3622" />
      </g>
      <g
         id="g6527"
         transform="matrix(-1,0,0,-1,890,174.72436)"
         style="opacity:1">
        <path
           inkscape:connector-curvature="0"
           d="m 461,87.362172 c 0,-8.83655 -7.16344,-15.99999 -16,-15.99999 -8.83656,0 -16,7.16344 -16,15.99999 0,8.83656 7.16344,15.999998 16,15.999998 8.83656,0 16,-7.163438 16,-15.999998 z m 4,0 c 0,-11.0457 -8.95431,-19.99999 -20,-19.99999 -11.04569,0 -20,8.95429 -20,19.99999 0,11.0457 8.95431,19.999998 20,19.999998 11.04569,0 20,-8.954298 20,-19.999998 z"
           style="opacity:1;fill:#000000;fill-opacity:1;fill-rule:evenodd;stroke:none"
           id="path6323" />
        <use
           id="use6525"
           xlink:href="#text6329"
           y="0"
           x="0"
           width="744.09448"
           height="1052.3622" />
      </g>
    </g>
    <use
       x="0"
       y="0"
       xlink:href="#g6307"
       id="use6485"
       transform="translate(0,50.240465)"
       width="744.09448"
       height="1052.3622" />
    <use
       x="0"
       y="0"
       xlink:href="#g6307"
       id="use6487"
       transform="translate(0,100.24046)"
       width="744.09448"
       height="1052.3622" />
    <g
       style="font-size:3.66666675px;font-style:normal;font-variant:normal;font-weight:normal;font-stretch:normal;line-height:125%;letter-spacing:0px;word-spacing:0px;fill:#db3b3b;fill-opacity:1;stroke:none;font-family:Last Ninja;-inkscape-font-specification:Last Ninja"
       id="text7160"
       inkscape:transform-center-x="-1.706085"
       inkscape:transform-center-y="1.6906524" />
    <g
       transform="matrix(-1,0,0,-1,990,774.72437)"
       style="font-size:3.66666675px;font-style:normal;font-variant:normal;font-weight:normal;font-stretch:normal;line-height:125%;letter-spacing:0px;word-spacing:0px;fill:#db3b3b;fill-opacity:1;stroke:none;font-family:Last Ninja;-inkscape-font-specification:Last Ninja"
       id="text7160-0"
       inkscape:transform-center-x="1.706085"
       inkscape:transform-center-y="-1.6906502">
      <path
         d="M 493.8125 369 C 493.68502 369.0078 493.55821 369.01075 493.4375 369.03125 C 493.31678 369.05175 493.18593 369.06155 493.03125 369.09375 C 492.93071 369.11185 492.79514 369.1673 492.625 369.25 C 492.45487 369.33274 492.31967 369.43317 492.21875 369.5625 C 492.21775 369.5654 492.1885 369.58875 492.1875 369.59375 C 492.18646 369.59925 492.18699 369.617 492.1875 369.625 C 492.1907 369.67742 492.2656 369.68955 492.375 369.71875 C 492.38765 369.72994 492.4167 369.77115 492.5 369.84375 C 492.58336 369.91639 492.65835 370.004 492.71875 370.0625 C 492.77914 370.12096 492.82845 370.1526 492.84375 370.1875 L 492.90625 370.78125 C 492.83916 370.79855 492.7774 370.80325 492.75 370.84375 C 492.7227 370.8843 492.71575 370.92705 492.71875 370.96875 C 492.73125 371.01584 492.7694 371.06295 492.8125 371.09375 C 492.85564 371.12465 492.90905 371.15725 492.96875 371.15625 L 493.03125 372.46875 L 493.4375 372.4375 C 492.94383 372.48866 492.44702 372.55838 491.96875 372.65625 C 491.52286 372.74749 491.08677 372.87015 490.65625 373 C 490.86878 372.93584 491.03673 372.83027 491.1875 372.6875 C 491.33826 372.54472 491.4802 372.37319 491.5625 372.1875 C 491.64298 371.99987 491.6759 371.80922 491.6875 371.59375 C 491.6991 371.37829 491.6892 371.15003 491.625 370.9375 C 491.56152 370.72726 491.44142 370.54803 491.3125 370.375 C 491.18358 370.20197 491.04576 370.04678 490.875 369.9375 C 490.70424 369.82822 490.51721 369.75665 490.3125 369.71875 C 490.10803 369.68575 489.90002 369.71705 489.6875 369.78125 C 489.47382 369.84577 489.30486 369.95413 489.15625 370.09375 C 489.0056 370.23898 488.86415 370.40789 488.78125 370.59375 C 488.6984 370.77962 488.66845 370.97187 488.65625 371.1875 C 488.64515 371.4028 488.65525 371.60226 488.71875 371.8125 C 488.78292 372.02503 488.9029 372.23305 489.03125 372.40625 C 489.16074 372.57911 489.29558 372.70146 489.46875 372.8125 C 489.64008 372.92161 489.82609 372.99595 490.03125 373.03125 C 490.19225 373.06022 490.36264 373.06648 490.53125 373.03125 C 490.06156 373.17734 489.60489 373.34149 489.15625 373.53125 C 489.07934 373.56378 489.01375 373.62248 488.9375 373.65625 C 488.81545 373.63588 488.6956 373.59772 488.5625 373.5625 C 488.42837 373.52172 488.31618 373.47095 488.1875 373.40625 C 488.06045 373.34203 487.91638 373.25185 487.8125 373.15625 C 487.70629 373.06612 487.6315 372.96243 487.5625 372.84375 C 487.5158 372.76326 487.47475 372.7 487.46875 372.625 C 487.46085 372.55385 487.49 372.47695 487.5 372.40625 C 487.5154 372.33523 487.50935 372.2568 487.53125 372.1875 C 487.55435 372.12027 487.58375 372.03945 487.59375 371.96875 C 487.607 371.89892 487.59875 371.8272 487.59375 371.75 C 487.58555 371.67885 487.57925 371.61385 487.53125 371.53125 C 487.47008 371.42599 487.383 371.3626 487.3125 371.3125 C 487.2374 371.2664 487.16715 371.207 487.09375 371.1875 C 486.65104 371.07894 486.1777 371.18391 485.6875 371.46875 C 485.57708 371.53291 485.4737 371.58375 485.375 371.65625 C 485.27633 371.72877 485.1863 371.8393 485.0625 371.9375 C 484.98078 371.99879 484.86491 372.09971 484.75 372.25 C 484.6351 372.40029 484.56335 372.55788 484.53125 372.71875 C 484.53225 372.72435 484.5585 372.743 484.5625 372.75 C 484.58889 372.7954 484.63913 372.80425 484.75 372.78125 C 484.76632 372.78555 484.83041 372.785 484.9375 372.8125 C 485.04459 372.84 485.13855 372.88105 485.21875 372.90625 C 485.29897 372.93145 485.3457 372.94435 485.375 372.96875 L 485.6875 373.46875 C 485.6353 373.51425 485.59975 373.54525 485.59375 373.59375 C 485.58745 373.64233 485.604 373.7139 485.625 373.75 C 485.65726 373.7865 485.6976 373.8045 485.75 373.8125 C 485.80239 373.8207 485.85345 373.80915 485.90625 373.78125 L 486.5625 374.90625 L 487 374.65625 L 486.34375 373.53125 L 486.875 373.21875 C 486.99778 373.36828 487.13373 373.51216 487.3125 373.625 C 487.4972 373.73855 487.70728 373.8153 487.90625 373.875 C 488.06869 373.91942 488.21351 373.93493 488.375 373.9375 C 488.20108 374.0234 488.01378 374.09513 487.84375 374.1875 C 487.41867 374.41842 487.024 374.66794 486.625 374.9375 C 485.82699 375.47662 485.08487 376.07138 484.40625 376.75 C 483.72763 377.42862 483.10162 378.17074 482.5625 378.96875 C 482.0752 379.69005 481.6702 380.47804 481.3125 381.28125 C 481.28203 381.1609 481.25119 381.05018 481.1875 380.9375 C 481.11167 380.8034 481.01682 380.6673 480.90625 380.5625 C 480.79834 380.4574 480.70822 380.38525 480.59375 380.34375 C 480.56569 380.33355 480.49315 380.3249 480.40625 380.3125 C 480.32088 380.2993 480.2195 380.29505 480.09375 380.28125 C 479.64044 380.24655 479.34664 380.22275 479.21875 380.21875 C 479.06518 380.21477 478.93084 380.21575 478.78125 380.21875 C 478.73095 380.22125 478.6657 380.21275 478.625 380.21875 C 478.58423 380.22425 478.5529 380.241 478.5 380.25 C 478.4471 380.2595 478.40925 380.28095 478.40625 380.28125 C 478.28727 380.29785 478.17375 380.31565 478.09375 380.34375 C 478.05985 380.35685 478.0315 380.37195 478 380.40625 C 477.9685 380.44055 477.9485 380.4697 477.9375 380.5 C 477.9216 380.5438 477.90725 380.5565 477.90625 380.5625 C 477.90425 380.5683 477.9315 380.58675 477.9375 380.59375 C 477.9512 380.59075 477.9854 380.58875 478 380.59375 C 478.1009 380.63412 478.1724 380.71139 478.25 380.8125 C 478.32763 380.91362 478.3888 381.01595 478.4375 381.125 C 478.48621 381.23405 478.5251 381.353 478.5625 381.46875 C 478.5999 381.58446 478.62429 381.623 478.625 381.625 C 478.38463 381.6928 478.16849 381.80342 477.96875 381.90625 C 477.769 382.00908 477.60963 382.07785 477.5 382.15625 C 477.39037 382.23463 477.32025 382.30965 477.28125 382.34375 C 477.23277 382.42141 477.2086 382.47285 477.1875 382.53125 C 477.1718 382.57505 477.15683 382.6024 477.15625 382.625 C 477.15625 382.6476 477.15425 382.6805 477.15625 382.6875 C 477.20231 382.704 477.2673 382.6965 477.3125 382.6875 C 477.36029 382.6782 477.4023 382.6592 477.4375 382.625 L 479.65625 383.4375 C 479.65485 383.4764 479.6702 383.50535 479.6875 383.53125 C 479.7048 383.55715 479.69935 383.58375 479.71875 383.59375 C 479.74325 383.61015 479.7942 383.62695 479.875 383.65625 C 479.97824 383.69335 480.07765 383.68745 480.15625 383.65625 C 480.23515 383.62771 480.3196 383.60005 480.375 383.53125 C 480.43333 383.4648 480.4599 383.37085 480.5 383.28125 C 480.5202 383.23267 480.5468 383.19245 480.5625 383.15625 C 480.5782 383.12005 480.58475 383.0861 480.59375 383.0625 C 480.59375 383.0549 480.59675 383.04435 480.59375 383.03125 C 480.59085 383.01815 480.5793 383.006 480.5625 383 C 480.50698 382.9849 480.4657 382.97175 480.4375 382.96875 C 480.38396 382.96585 480.33695 383.0103 480.28125 383.0625 L 478.5625 382.4375 C 478.58379 382.41728 478.6187 382.39185 478.6875 382.34375 C 478.75632 382.29569 478.86333 382.22165 479 382.15625 C 479.13666 382.09087 479.30754 382.02345 479.5 381.96875 C 479.47819 381.8923 479.4404 381.7915 479.375 381.625 C 479.30964 381.45851 479.20839 381.27492 479.09375 381.09375 C 479.13687 381.07635 479.2225 381.0675 479.3125 381.0625 C 479.40249 381.0585 479.46795 381.0585 479.53125 381.0625 C 479.56225 381.0615 479.63175 381.0555 479.71875 381.0625 C 479.80579 381.0692 479.89508 381.0979 480.03125 381.125 C 480.16742 381.15211 480.33167 381.189 480.5 381.25 C 480.6919 381.31952 480.87076 381.42624 481.0625 381.53125 C 481.0767 381.55165 481.1096 381.55575 481.125 381.59375 C 481.13578 381.62035 481.14795 381.64334 481.15625 381.65625 C 480.98651 382.06737 480.82079 382.4777 480.6875 382.90625 C 480.54141 383.37594 480.41241 383.85552 480.3125 384.34375 C 480.24162 384.69013 480.17155 385.05162 480.125 385.40625 C 480.1467 385.21412 480.14725 385.02293 480.15625 384.84375 C 480.16525 384.66457 480.16715 384.5276 480.15625 384.40625 C 480.14535 384.2849 480.12955 384.20115 480.09375 384.15625 C 480.07155 384.11895 480.0427 384.09875 480 384.09375 C 479.95727 384.08895 479.9069 384.07695 479.875 384.09375 C 479.79807 384.13675 479.74595 384.1805 479.71875 384.1875 C 479.68968 384.2106 479.6641 384.22275 479.625 384.21875 C 479.5871 384.21445 479.5537 384.19115 479.5 384.15625 C 479.489 384.14665 479.44835 384.12555 479.40625 384.09375 C 479.36425 384.06195 479.35275 384.03825 479.34375 384.03125 C 479.32055 384.01295 479.29545 384.002 479.28125 384 C 479.25515 383.997 479.23935 384.00835 479.21875 384.03125 C 479.16375 384.14636 479.1356 384.25005 479.125 384.34375 C 479.1178 384.40778 479.1131 384.4668 479.125 384.5 C 479.1369 384.5331 479.14625 384.5545 479.15625 384.5625 C 479.17205 384.5823 479.1758 384.596 479.1875 384.625 C 479.1992 384.654 479.21375 384.68995 479.21875 384.71875 C 479.22395 384.74754 479.242 384.7642 479.25 384.8125 C 479.2578 384.86083 479.245 384.9165 479.25 384.9375 C 479.2601 384.9975 479.269 385.11283 479.25 385.28125 C 479.2319 385.44137 479.18765 385.59921 479.15625 385.78125 C 479.12485 385.96329 479.11105 386.0982 479.09375 386.1875 C 479.07995 386.25684 479.0513 386.30985 479 386.34375 C 478.94874 386.37745 478.89715 386.381 478.84375 386.375 L 478.1875 386.3125 L 478.34375 385.09375 L 478.09375 385.03125 L 477.96875 386.3125 L 477.09375 386.1875 L 477.25 384.9375 C 477.2524 384.91615 477.24995 384.8876 477.28125 384.8125 C 477.31255 384.73731 477.33345 384.67305 477.34375 384.65625 C 477.34815 384.64955 477.368 384.638 477.375 384.625 C 477.3825 384.6121 477.39725 384.61015 477.40625 384.59375 C 477.41525 384.57735 477.40025 384.5715 477.40625 384.5625 C 477.41785 384.5446 477.4295 384.47745 477.4375 384.40625 C 477.4452 384.31347 477.46967 384.21395 477.46875 384.0625 C 477.42138 384.0463 477.3627 384.00325 477.3125 383.96875 C 477.26196 383.92701 477.15935 383.87015 477.03125 383.78125 C 476.98758 383.75345 476.94535 383.72275 476.90625 383.71875 L 476.59375 386.65625 L 479.25 386.96875 C 479.2606 387.02396 479.26065 387.06375 479.28125 387.09375 C 479.30185 387.12365 479.33135 387.14925 479.34375 387.15625 C 479.36055 387.16755 479.38255 387.15325 479.40625 387.15625 C 479.46671 387.16315 479.5196 387.1538 479.5625 387.125 C 479.66632 387.07787 479.75825 386.95423 479.875 386.75 C 479.8898 386.72525 479.9087 386.63789 479.9375 386.5 C 479.9663 386.36211 479.99995 386.19766 480.03125 386 C 480.03954 385.94765 480.05481 385.89638 480.0625 385.84375 C 480.01129 386.34801 480 386.85723 480 387.375 C 480 388.9283 480.24923 390.40342 480.6875 391.8125 C 480.97968 392.75189 481.35067 393.64984 481.8125 394.5 C 482.27433 395.35016 482.82612 396.16543 483.4375 396.90625 C 483.74319 397.27666 484.06694 397.62944 484.40625 397.96875 C 485.42417 398.98667 486.56851 399.86975 487.84375 400.5625 C 488.69391 401.02433 489.59186 401.39532 490.53125 401.6875 C 491.00094 401.83359 491.48052 401.96259 491.96875 402.0625 C 492.71629 402.21547 493.49771 402.30651 494.28125 402.34375 C 494.37786 402.4148 494.46294 402.50568 494.5625 402.59375 C 494.66407 402.69039 494.75775 402.79072 494.84375 402.90625 C 494.92846 403.02065 495.0126 403.14918 495.0625 403.28125 C 495.1169 403.40947 495.14825 403.51924 495.15625 403.65625 C 495.16195 403.74918 495.153 403.83635 495.125 403.90625 C 495.1004 403.97352 495.07195 404.03505 495.03125 404.09375 C 494.98565 404.15034 494.9256 404.1979 494.875 404.25 C 494.82424 404.29973 494.7907 404.3788 494.75 404.4375 C 494.70682 404.49395 494.6553 404.5538 494.625 404.625 C 494.6008 404.69227 494.58775 404.7797 494.59375 404.875 C 494.60125 404.99651 494.647 405.07975 494.6875 405.15625 C 494.73393 405.23114 494.78685 405.29345 494.84375 405.34375 C 495.19065 405.63948 495.62161 405.7845 496.1875 405.75 C 496.31498 405.7422 496.44179 405.708 496.5625 405.6875 C 496.68322 405.667 496.81407 405.6572 496.96875 405.625 C 497.06929 405.6069 497.20486 405.55145 497.375 405.46875 C 497.54513 405.38601 497.68033 405.28558 497.78125 405.15625 C 497.78225 405.15335 497.8115 405.13 497.8125 405.125 C 497.8093 405.07258 497.7344 405.0292 497.625 405 C 497.61235 404.98881 497.5833 404.9476 497.5 404.875 C 497.41664 404.80236 497.34165 404.71475 497.28125 404.65625 C 497.22086 404.59779 497.17155 404.56615 497.15625 404.53125 L 497.09375 403.9375 C 497.16084 403.9202 497.2226 403.9155 497.25 403.875 C 497.2773 403.83445 497.28425 403.7917 497.28125 403.75 C 497.26875 403.70291 497.2306 403.6558 497.1875 403.625 C 497.14436 403.5941 497.09095 403.59275 497.03125 403.59375 L 496.96875 402.28125 L 496.46875 402.3125 L 496.5625 403.625 L 495.9375 403.65625 C 495.89489 403.46752 495.82786 403.27483 495.71875 403.09375 C 495.60465 402.90939 495.46351 402.73639 495.3125 402.59375 C 495.21032 402.50187 495.11412 402.44169 495 402.375 C 496.5084 402.375 497.97043 402.13297 499.34375 401.71875 C 499.13122 401.78291 498.96327 401.88848 498.8125 402.03125 C 498.66174 402.17403 498.5198 402.34556 498.4375 402.53125 C 498.35702 402.71888 498.3241 402.90953 498.3125 403.125 C 498.3009 403.34046 498.3108 403.56872 498.375 403.78125 C 498.43848 403.99149 498.55858 404.17072 498.6875 404.34375 C 498.81642 404.51678 498.95424 404.67197 499.125 404.78125 C 499.29576 404.89053 499.48279 404.9621 499.6875 405 C 499.89197 405.033 500.09998 405.0017 500.3125 404.9375 C 500.52618 404.87298 500.69514 404.76462 500.84375 404.625 C 500.9944 404.47977 501.13585 404.34211 501.21875 404.15625 C 501.3016 403.97038 501.33155 403.74688 501.34375 403.53125 C 501.35485 403.31595 501.34475 403.11649 501.28125 402.90625 C 501.21708 402.69372 501.0971 402.4857 500.96875 402.3125 C 500.83926 402.13964 500.70442 402.01729 500.53125 401.90625 C 500.35992 401.79714 500.17391 401.7228 499.96875 401.6875 C 499.80775 401.65853 499.63736 401.65227 499.46875 401.6875 C 500.02874 401.51333 500.56403 401.2984 501.09375 401.0625 C 501.20699 401.08234 501.31488 401.1238 501.4375 401.15625 C 501.57163 401.19703 501.68382 401.2478 501.8125 401.3125 C 501.93955 401.37672 502.08362 401.4669 502.1875 401.5625 C 502.29371 401.65263 502.3685 401.75632 502.4375 401.875 C 502.4842 401.95549 502.52525 402.05 502.53125 402.125 C 502.53915 402.19615 502.51 402.2418 502.5 402.3125 C 502.4846 402.38352 502.49065 402.46195 502.46875 402.53125 C 502.44565 402.59848 502.41625 402.6793 502.40625 402.75 C 502.393 402.81983 502.40125 402.89155 502.40625 402.96875 C 502.41445 403.0399 502.42075 403.1049 502.46875 403.1875 C 502.52992 403.29276 502.617 403.3874 502.6875 403.4375 C 502.7626 403.4836 502.83285 403.51175 502.90625 403.53125 C 503.34896 403.63981 503.8223 403.53484 504.3125 403.25 C 504.42292 403.18584 504.5263 403.135 504.625 403.0625 C 504.72367 402.98998 504.8137 402.9107 504.9375 402.8125 C 505.01922 402.75121 505.13509 402.61904 505.25 402.46875 C 505.3649 402.31846 505.43665 402.16087 505.46875 402 C 505.46775 401.9944 505.4415 401.97575 505.4375 401.96875 C 505.41111 401.92335 505.36087 401.9145 505.25 401.9375 C 505.23368 401.9332 505.16959 401.93375 505.0625 401.90625 C 504.95541 401.87875 504.86145 401.8377 504.78125 401.8125 C 504.70103 401.7873 504.6543 401.7744 504.625 401.75 L 504.3125 401.25 C 504.3647 401.2045 504.40025 401.1735 504.40625 401.125 C 504.41255 401.07642 504.396 401.0361 504.375 401 C 504.34274 400.9635 504.3024 400.91425 504.25 400.90625 C 504.19761 400.89805 504.14655 400.9096 504.09375 400.9375 L 503.4375 399.8125 L 503 400.0625 L 503.65625 401.1875 L 503.125 401.5 C 503.00222 401.35047 502.86627 401.23784 502.6875 401.125 C 502.5028 401.01145 502.29272 400.90345 502.09375 400.84375 C 501.94311 400.80256 501.80607 400.81771 501.65625 400.8125 C 502.12098 400.58209 502.5641 400.33814 503 400.0625 C 503.12825 399.9814 503.24942 399.89734 503.375 399.8125 C 505.69231 398.24695 507.53833 396.01794 508.6875 393.4375 C 508.71797 393.55785 508.74881 393.66857 508.8125 393.78125 C 508.88833 393.91535 508.98318 394.05145 509.09375 394.15625 C 509.20166 394.26135 509.29178 394.3335 509.40625 394.375 C 509.43431 394.3852 509.50685 394.39385 509.59375 394.40625 C 509.67912 394.41945 509.7805 394.4237 509.90625 394.4375 C 510.35956 394.4722 510.65336 394.496 510.78125 394.5 C 510.93482 394.50398 511.06916 394.503 511.21875 394.5 C 511.26905 394.4975 511.3343 394.506 511.375 394.5 C 511.41577 394.4945 511.4471 394.47775 511.5 394.46875 C 511.5529 394.45925 511.59075 394.46905 511.59375 394.46875 C 511.71273 394.45215 511.82625 394.4031 511.90625 394.375 C 511.94015 394.3619 511.9685 394.3468 512 394.3125 C 512.0315 394.2782 512.0515 394.24905 512.0625 394.21875 C 512.0784 394.17495 512.09275 394.16225 512.09375 394.15625 C 512.09575 394.15045 512.0685 394.132 512.0625 394.125 C 512.0488 394.128 512.0146 394.13 512 394.125 C 511.8991 394.08463 511.8276 394.00736 511.75 393.90625 C 511.67237 393.80513 511.6112 393.7028 511.5625 393.59375 C 511.51379 393.4847 511.4749 393.36575 511.4375 393.25 C 511.4001 393.13429 511.37571 393.09575 511.375 393.09375 C 511.61537 393.02595 511.83151 392.94658 512.03125 392.84375 C 512.231 392.74092 512.39037 392.6409 512.5 392.5625 C 512.60963 392.48412 512.67975 392.4091 512.71875 392.375 C 512.76723 392.29734 512.7914 392.2459 512.8125 392.1875 C 512.8282 392.1437 512.84317 392.11635 512.84375 392.09375 C 512.84375 392.07115 512.84575 392.03825 512.84375 392.03125 C 512.79769 392.01475 512.7327 392.02225 512.6875 392.03125 C 512.63971 392.04055 512.5977 392.05955 512.5625 392.09375 L 510.34375 391.28125 C 510.34515 391.24235 510.3298 391.2134 510.3125 391.1875 C 510.2952 391.1616 510.30065 391.135 510.28125 391.125 C 510.25675 391.1086 510.2058 391.0918 510.125 391.0625 C 510.02176 391.0254 509.92235 391.0313 509.84375 391.0625 C 509.76485 391.09104 509.6804 391.14995 509.625 391.21875 C 509.56667 391.2852 509.5401 391.3479 509.5 391.4375 C 509.4798 391.48608 509.4532 391.5263 509.4375 391.5625 C 509.4218 391.5987 509.41525 391.63265 509.40625 391.65625 C 509.40625 391.66385 509.40325 391.6744 509.40625 391.6875 C 509.40915 391.7006 509.4207 391.71275 509.4375 391.71875 C 509.49302 391.73385 509.5343 391.747 509.5625 391.75 C 509.61604 391.7529 509.66305 391.70845 509.71875 391.65625 L 511.4375 392.28125 C 511.41621 392.30147 511.3813 392.3269 511.3125 392.375 C 511.24368 392.42306 511.13667 392.4971 511 392.5625 C 510.86334 392.62788 510.69246 392.6953 510.5 392.75 C 510.52181 392.82645 510.5596 392.92725 510.625 393.09375 C 510.69036 393.26024 510.79161 393.44383 510.90625 393.625 C 510.86313 393.6424 510.7775 393.65125 510.6875 393.65625 C 510.59751 393.66025 510.53205 393.66025 510.46875 393.65625 C 510.43775 393.65725 510.36825 393.66325 510.28125 393.65625 C 510.19421 393.64955 510.10492 393.62085 509.96875 393.59375 C 509.83258 393.56664 509.66833 393.52975 509.5 393.46875 C 509.3081 393.39923 509.12924 393.32376 508.9375 393.21875 C 508.9233 393.19835 508.8904 393.163 508.875 393.125 C 508.8596 393.087 508.85405 393.0726 508.84375 393.0625 C 509.33424 391.8745 509.7039 390.63101 509.875 389.3125 C 509.8533 389.50463 509.85275 389.69582 509.84375 389.875 C 509.83475 390.05418 509.83285 390.19115 509.84375 390.3125 C 509.85465 390.43385 509.87045 390.5176 509.90625 390.5625 C 509.92845 390.5998 509.9573 390.62 510 390.625 C 510.04273 390.6298 510.0931 390.6418 510.125 390.625 C 510.20193 390.582 510.25405 390.53825 510.28125 390.53125 C 510.31032 390.50815 510.3359 390.52725 510.375 390.53125 C 510.4129 390.53555 510.4463 390.5276 510.5 390.5625 C 510.511 390.5721 510.55165 390.5932 510.59375 390.625 C 510.63575 390.6568 510.64725 390.6805 510.65625 390.6875 C 510.67945 390.7058 510.70455 390.71675 510.71875 390.71875 C 510.74485 390.72175 510.76065 390.7104 510.78125 390.6875 C 510.83625 390.57239 510.8644 390.4687 510.875 390.375 C 510.8822 390.31097 510.8869 390.2832 510.875 390.25 C 510.8631 390.2169 510.85375 390.1955 510.84375 390.1875 C 510.82795 390.1677 510.8242 390.12275 510.8125 390.09375 C 510.8008 390.06475 510.78625 390.0288 510.78125 390 C 510.77605 389.97121 510.758 389.95455 510.75 389.90625 C 510.7422 389.85792 510.755 389.80225 510.75 389.78125 C 510.7399 389.72125 510.731 389.60592 510.75 389.4375 C 510.7681 389.27738 510.81235 389.11954 510.84375 388.9375 C 510.87515 388.75546 510.88895 388.62055 510.90625 388.53125 C 510.92005 388.46191 510.9487 388.4089 511 388.375 C 511.05126 388.3413 511.10285 388.33775 511.15625 388.34375 L 511.8125 388.40625 L 511.65625 389.625 L 511.90625 389.6875 L 512.03125 388.4375 L 512.90625 388.53125 L 512.75 389.78125 C 512.7476 389.8026 512.75005 389.83115 512.71875 389.90625 C 512.68745 389.98144 512.66655 390.0457 512.65625 390.0625 C 512.65185 390.0692 512.632 390.08075 512.625 390.09375 C 512.6175 390.10665 512.60275 390.1086 512.59375 390.125 C 512.58475 390.1414 512.59975 390.14725 512.59375 390.15625 C 512.58215 390.17415 512.5705 390.2413 512.5625 390.3125 C 512.5548 390.40528 512.53033 390.5048 512.53125 390.65625 C 512.57862 390.67245 512.6373 390.7155 512.6875 390.75 C 512.73804 390.79174 512.84065 390.8486 512.96875 390.9375 C 513.01242 390.9653 513.05465 390.996 513.09375 391 L 513.40625 388.0625 L 510.75 387.75 C 510.7394 387.69479 510.73935 387.655 510.71875 387.625 C 510.69815 387.5951 510.66865 387.60075 510.65625 387.59375 C 510.63945 387.58245 510.61745 387.5655 510.59375 387.5625 C 510.53329 387.5556 510.4804 387.56495 510.4375 387.59375 C 510.33368 387.64088 510.24175 387.76452 510.125 387.96875 C 510.1102 387.9935 510.0913 388.08086 510.0625 388.21875 C 510.0337 388.35664 510.00005 388.52109 509.96875 388.71875 C 509.95885 388.78125 509.94654 388.84335 509.9375 388.90625 C 509.98871 388.40199 510 387.89277 510 387.375 C 510 379.34433 503.68289 372.80017 495.75 372.40625 C 495.64244 372.32911 495.54874 372.25465 495.4375 372.15625 C 495.33593 372.05961 495.24225 371.92803 495.15625 371.8125 C 495.07154 371.6981 494.9874 371.60082 494.9375 371.46875 C 494.8831 371.34053 494.85175 371.19951 494.84375 371.0625 C 494.83805 370.96957 494.847 370.8824 494.875 370.8125 C 494.8996 370.74523 494.92805 370.6837 494.96875 370.625 C 495.01435 370.56841 495.0744 370.52085 495.125 370.46875 C 495.17576 370.41902 495.2093 370.3712 495.25 370.3125 C 495.29318 370.25605 495.3447 370.16495 495.375 370.09375 C 495.3992 370.02648 495.41225 369.9703 495.40625 369.875 C 495.39875 369.75349 495.353 369.639 495.3125 369.5625 C 495.26607 369.48761 495.21315 369.4253 495.15625 369.375 C 494.80935 369.07927 494.37839 368.9655 493.8125 369 z M 493.90625 369.625 C 494.10163 369.61309 494.25655 369.64155 494.34375 369.71875 C 494.42997 369.79959 494.45635 369.95373 494.46875 370.15625 C 494.48245 370.38023 494.46635 370.5328 494.40625 370.625 C 494.37782 370.6686 494.3191 370.71475 494.25 370.71875 L 493.4375 370.75 L 493.40625 369.9375 C 493.40205 369.86722 493.42915 369.7871 493.46875 369.75 C 493.48705 369.7357 493.49525 369.73645 493.53125 369.71875 C 493.56723 369.70105 493.6203 369.67235 493.6875 369.65625 C 493.75468 369.64015 493.82995 369.63 493.90625 369.625 z M 490.1875 370.1875 C 490.30333 370.20365 490.41 370.21865 490.5 370.28125 C 490.58872 370.34798 490.6847 370.45567 490.75 370.5625 C 490.81533 370.66934 490.86515 370.77028 490.90625 370.90625 C 490.94735 371.04223 490.96375 371.18927 490.96875 371.3125 C 490.97305 371.43837 490.94425 371.55501 490.90625 371.65625 C 490.86734 371.76276 490.80695 371.8622 490.71875 371.9375 C 490.63234 372.01471 490.51668 372.05095 490.375 372.09375 C 490.23445 372.13665 490.11469 372.17275 490 372.15625 C 489.88256 372.14309 489.7766 372.09915 489.6875 372.03125 C 489.59753 371.96865 489.53475 371.85724 489.46875 371.75 C 489.40455 371.64471 489.3536 371.54223 489.3125 371.40625 C 489.2715 371.27028 489.22375 371.12552 489.21875 371 C 489.21475 370.87528 489.24195 370.76162 489.28125 370.65625 C 489.31925 370.55501 489.37895 370.48445 489.46875 370.40625 C 489.55584 370.33133 489.67195 370.26115 489.8125 370.21875 C 489.95418 370.17594 490.07349 370.1733 490.1875 370.1875 z M 494.0625 371.0625 C 494.10511 371.25123 494.17214 371.44392 494.28125 371.625 C 494.39535 371.80936 494.53649 371.98236 494.6875 372.125 C 494.80497 372.23062 494.92926 372.30266 495.0625 372.375 C 495.04142 372.37491 495.0211 372.375 495 372.375 C 494.50333 372.375 494.01553 372.39033 493.53125 372.4375 L 493.4375 371.125 L 494.0625 371.0625 z M 486.3125 371.90625 C 486.38296 371.88918 486.44371 371.89135 486.5 371.90625 C 486.61335 371.93978 486.7418 372.04331 486.84375 372.21875 C 486.95648 372.41276 486.98115 372.54691 486.96875 372.65625 C 486.96295 372.70799 486.9349 372.74645 486.875 372.78125 L 486.1875 373.21875 L 485.75 372.5 C 485.7146 372.43911 485.7313 372.3634 485.75 372.3125 C 485.76 372.2916 485.75705 372.282 485.78125 372.25 C 485.80548 372.21804 485.85345 372.1695 485.90625 372.125 C 485.95908 372.08048 486.02775 372.0384 486.09375 372 C 486.17838 371.95061 486.24204 371.92332 486.3125 371.90625 z M 483.46875 372.96875 L 481.3125 375.03125 L 483.15625 376.9375 C 483.12895 376.98667 483.128 377.05755 483.125 377.09375 C 483.122 377.13005 483.12 377.14265 483.125 377.15625 C 483.1305 377.17575 483.13975 377.20145 483.15625 377.21875 C 483.1982 377.26285 483.22985 377.27625 483.28125 377.28125 C 483.39112 377.31174 483.56065 377.30045 483.78125 377.21875 C 483.80849 377.20927 483.88943 377.1498 484 377.0625 C 484.11056 376.97523 484.25538 376.85022 484.40625 376.71875 C 484.55713 376.58727 484.69689 376.45252 484.84375 376.3125 C 484.9837 376.17908 485.09699 376.06925 485.21875 375.9375 C 485.3405 375.80576 485.46175 375.69383 485.53125 375.59375 C 485.60076 375.49369 485.624 375.40115 485.625 375.34375 C 485.6319 375.30086 485.62335 375.24985 485.59375 375.21875 C 485.56405 375.18765 485.5353 375.1955 485.5 375.1875 C 485.41341 375.171 485.3375 375.1374 485.3125 375.125 C 485.2753 375.1241 485.24595 375.12225 485.21875 375.09375 C 485.19245 375.06611 485.17505 375.02995 485.15625 374.96875 C 485.15405 374.95435 485.1369 374.89515 485.125 374.84375 C 485.1128 374.79235 485.127 374.761 485.125 374.75 C 485.119 374.7212 485.10375 374.72915 485.09375 374.71875 C 485.07565 374.69975 485.06175 374.6835 485.03125 374.6875 C 484.91517 374.74045 484.8182 374.77865 484.75 374.84375 C 484.7033 374.88825 484.66845 374.93565 484.65625 374.96875 C 484.64435 375.00185 484.65425 375.01855 484.65625 375.03125 C 484.65565 375.05655 484.635 375.0953 484.625 375.125 C 484.6154 375.1547 484.60825 375.19335 484.59375 375.21875 C 484.57925 375.24411 484.55635 375.2705 484.53125 375.3125 C 484.50625 375.3545 484.47875 375.38705 484.46875 375.40625 C 484.43795 375.4587 484.37267 375.5393 484.25 375.65625 C 484.13337 375.76744 484.01588 375.88053 483.875 376 C 483.73412 376.11947 483.60185 376.22385 483.53125 376.28125 C 483.47616 376.32555 483.436 376.3195 483.375 376.3125 C 483.31394 376.3056 483.25585 376.2889 483.21875 376.25 L 482.78125 375.78125 L 483.65625 374.9375 L 483.53125 374.75 L 482.625 375.625 L 482 375 L 482.90625 374.125 C 482.9218 374.1102 482.9903 374.06875 483.0625 374.03125 C 483.13473 373.99365 483.1688 373.97475 483.1875 373.96875 C 483.1952 373.96655 483.20475 373.97375 483.21875 373.96875 C 483.23285 373.96355 483.26375 373.9445 483.28125 373.9375 C 483.29865 373.9307 483.3023 373.9405 483.3125 373.9375 C 483.33296 373.9313 483.35445 373.89315 483.40625 373.84375 C 483.47199 373.77778 483.55975 373.67923 483.65625 373.5625 C 483.63025 373.51967 483.61005 373.4961 483.59375 373.4375 C 483.58175 373.37305 483.57245 373.24417 483.53125 373.09375 C 483.51555 373.04438 483.49595 372.99725 483.46875 372.96875 z M 480.78125 376.3125 C 480.3365 376.41239 479.96837 376.7142 479.65625 377.1875 C 479.58595 377.29412 479.52485 377.39114 479.46875 377.5 C 479.41269 377.60887 479.34835 377.73199 479.28125 377.875 C 479.23535 377.96627 479.19225 378.12677 479.15625 378.3125 C 479.12025 378.49823 479.11345 378.65415 479.15625 378.8125 C 479.15725 378.8147 479.1835 378.8085 479.1875 378.8125 C 479.191 378.8171 479.1805 378.83875 479.1875 378.84375 C 479.23134 378.87265 479.286 378.85125 479.375 378.78125 C 479.39153 378.77785 479.45437 378.7731 479.5625 378.75 C 479.67064 378.727 479.792 378.7007 479.875 378.6875 C 479.95802 378.6735 479.99415 378.6785 480.03125 378.6875 L 480.46875 378.9375 C 480.44195 379.00157 480.4235 379.04885 480.4375 379.09375 C 480.4515 379.13869 480.49735 379.1652 480.53125 379.1875 C 480.57574 379.2073 480.60715 379.2045 480.65625 379.1875 C 480.70532 379.1705 480.74575 379.14325 480.78125 379.09375 L 481.75 379.75 C 481.76398 379.75948 481.8201 379.76 481.875 379.75 C 481.92996 379.7404 481.9637 379.7165 482 379.6875 C 482.07237 379.66231 482.14185 379.58533 482.21875 379.46875 L 481.03125 378.6875 L 481.125 378.59375 C 481.29518 378.33568 481.44686 378.0647 481.59375 377.78125 C 481.6424 377.70752 481.6662 377.60194 481.6875 377.46875 C 481.7091 377.33556 481.7144 377.20604 481.6875 377.0625 C 481.66063 376.91897 481.61585 376.79335 481.53125 376.6875 C 481.48581 376.60464 481.38687 376.53845 481.28125 376.46875 C 481.16267 376.39061 481.08395 376.34875 481.03125 376.34375 C 480.90339 376.32955 480.81765 376.3055 480.78125 376.3125 z M 480.5625 377.25 C 480.67195 377.22496 480.81729 377.24385 480.96875 377.34375 L 481.03125 377.40625 C 481.16975 377.49759 481.25725 377.56465 481.28125 377.65625 C 481.29435 377.70783 481.2855 377.7587 481.25 377.8125 C 481.2382 377.83475 481.19105 377.8782 481.15625 377.9375 C 481.12146 377.99677 481.08775 378.07055 481.03125 378.15625 C 480.95503 378.27184 480.86475 378.39067 480.78125 378.5 L 480.15625 378.09375 C 480.10545 378.06019 480.0685 377.9914 480.0625 377.9375 C 480.057 377.88092 480.0816 377.80735 480.125 377.71875 C 480.1684 377.63015 480.2126 377.5568 480.25 377.5 C 480.35645 377.33859 480.45271 377.2734 480.5625 377.25 z M 497.9375 378.53125 C 498.5703 378.53127 499.14061 378.56642 499.65625 378.625 C 500.17186 378.69533 500.60545 378.80666 500.96875 379 C 501.32616 379.21681 501.60741 379.50588 501.8125 379.875 C 502.00584 380.27345 502.09373 380.79298 502.09375 381.4375 C 502.09373 381.94142 501.99803 382.45704 501.78125 382.9375 C 501.55272 383.41798 501.26366 383.84376 500.90625 384.21875 C 500.70116 384.42384 500.48924 384.61427 500.28125 384.78125 C 500.07323 384.94825 499.85936 385.08204 499.625 385.1875 C 499.51952 385.24024 499.35057 385.33692 499.125 385.46875 C 498.8994 385.6006 498.70116 385.70509 498.53125 385.78125 C 498.36132 385.85743 498.19725 385.88282 498.0625 385.90625 C 498.02733 386.20509 497.99999 386.5547 498 386.90625 C 497.99999 387.38673 498.10057 387.87891 498.25 388.40625 C 498.3994 388.9336 498.58007 389.46094 498.84375 390 C 499.09569 390.53907 499.40428 391.06641 499.75 391.59375 C 500.08983 392.13867 500.46288 392.66211 500.84375 393.125 C 501.21873 393.61719 501.60741 394.05078 502 394.4375 C 502.42186 394.85938 502.791 395.18555 503.125 395.4375 C 503.14842 395.47266 503.18065 395.54297 503.21875 395.625 C 503.25682 395.70703 503.28123 395.80664 503.28125 395.90625 C 503.28123 396.04101 503.22459 396.11719 503.125 396.1875 C 502.31053 396.1875 501.541 396.05664 500.84375 395.78125 C 500.17577 395.5293 499.57323 395.19531 499.03125 394.75 C 498.48925 394.30469 498.02147 393.79297 497.59375 393.21875 C 497.14843 392.63867 496.73046 392.03907 496.34375 391.40625 C 495.96288 390.7793 495.60155 390.13282 495.25 389.5 C 494.79296 388.70313 494.40429 388.06837 494.09375 387.59375 C 493.9414 387.67579 493.52636 387.79591 492.84375 387.96875 C 492.16113 388.14161 491.55273 388.28712 491.03125 388.375 L 491.03125 394.875 C 490.99609 394.95703 490.94238 395.07227 490.875 395.21875 C 490.80761 395.36523 490.71191 395.50488 490.5625 395.625 C 490.41308 395.74512 490.20117 395.82812 489.9375 395.875 C 489.77929 395.93359 489.41406 395.96875 488.875 395.96875 C 488.54687 395.92187 488.26855 395.77344 488.03125 395.5625 C 487.79394 395.35156 487.67969 395.20313 487.65625 395.0625 L 487.65625 388.59375 C 487.03516 388.44141 486.71875 388.11719 486.71875 387.625 C 486.71875 387.38477 486.81934 387.1504 486.96875 386.96875 C 487.11816 386.78712 487.24609 386.67188 487.375 386.625 L 487.375 381.09375 C 487.375 381.08205 487.30176 381.05665 487.1875 380.96875 C 487.07324 380.88087 486.99414 380.77052 486.90625 380.65625 C 486.81836 380.54201 486.75 380.40822 486.75 380.25 C 486.75 380.06837 486.89258 379.89064 487.15625 379.75 C 487.25586 379.63283 487.49121 379.52638 487.875 379.40625 C 488.25879 379.28615 488.69629 379.18752 489.15625 379.09375 C 489.61621 379.00002 490.10058 378.91994 490.625 378.84375 C 491.14941 378.76759 491.51171 378.71877 491.6875 378.71875 C 491.99804 378.71877 492.15624 378.79884 492.15625 378.96875 C 492.15624 378.98048 492.11718 379.03127 492.09375 379.125 C 492.09374 379.39455 492.09765 379.66017 492.0625 379.90625 C 492.01562 380.18166 491.92382 380.42775 491.8125 380.65625 C 491.70703 380.8965 491.54101 381.03517 491.3125 381.09375 L 491.3125 386.0625 C 491.58203 386.06251 491.8457 386.04102 492.0625 386 C 492.27929 385.95899 492.47851 385.87989 492.71875 385.8125 C 492.95898 385.74513 493.23046 385.66993 493.5 385.59375 C 494.1328 385.4297 494.73241 385.1836 495.3125 384.84375 C 495.87499 384.49806 496.42968 384.0586 496.96875 383.53125 C 497.49608 383.00392 498.05077 382.38868 498.625 381.65625 C 498.77147 381.44533 498.84374 381.23439 498.84375 381 C 498.84374 380.75392 498.74413 380.46095 498.5625 380.15625 C 498.26952 379.66408 498.11522 379.334 498.0625 379.1875 C 497.98046 379.02345 497.93749 378.81838 497.9375 378.53125 z M 508.125 394.96875 C 508.07004 394.97835 508.0363 395.00225 508 395.03125 C 507.92763 395.05644 507.85815 395.13342 507.78125 395.25 L 508.96875 396.03125 L 508.875 396.125 C 508.70482 396.38307 508.55314 396.65405 508.40625 396.9375 C 508.3576 397.01123 508.3338 397.11681 508.3125 397.25 C 508.2909 397.38319 508.2856 397.51271 508.3125 397.65625 C 508.33937 397.79978 508.38415 397.9254 508.46875 398.03125 C 508.51419 398.11411 508.61313 398.21155 508.71875 398.28125 C 508.83733 398.35939 508.91605 398.40125 508.96875 398.40625 C 509.09661 398.42045 509.18235 398.41325 509.21875 398.40625 C 509.6635 398.30636 510.03163 398.00455 510.34375 397.53125 C 510.41405 397.42463 510.47515 397.32761 510.53125 397.21875 C 510.58731 397.10988 510.65165 396.98676 510.71875 396.84375 C 510.76465 396.75248 510.80775 396.62323 510.84375 396.4375 C 510.87975 396.25177 510.88655 396.0646 510.84375 395.90625 C 510.84275 395.90405 510.8165 395.91025 510.8125 395.90625 C 510.809 395.90165 510.8195 395.88 510.8125 395.875 C 510.76866 395.8461 510.714 395.8675 510.625 395.9375 C 510.60847 395.9409 510.54563 395.9769 510.4375 396 C 510.32936 396.023 510.208 396.01805 510.125 396.03125 C 510.04198 396.04525 510.00585 396.0715 509.96875 396.0625 L 509.53125 395.78125 C 509.55805 395.71718 509.5765 395.6699 509.5625 395.625 C 509.5485 395.58006 509.50265 395.55355 509.46875 395.53125 C 509.42426 395.51145 509.39285 395.51425 509.34375 395.53125 C 509.29468 395.54825 509.25425 395.5755 509.21875 395.625 L 508.25 394.96875 C 508.23602 394.95927 508.1799 394.95875 508.125 394.96875 z M 509.21875 396.21875 L 509.84375 396.65625 C 509.89455 396.68981 509.9315 396.72735 509.9375 396.78125 C 509.943 396.83783 509.9184 396.9114 509.875 397 C 509.8316 397.0886 509.7874 397.16195 509.75 397.21875 C 509.64355 397.38016 509.54729 397.4766 509.4375 397.5 C 509.32805 397.52504 509.18271 397.4749 509.03125 397.375 L 508.96875 397.34375 C 508.83025 397.25241 508.74275 397.1541 508.71875 397.0625 C 508.70565 397.01092 508.7145 396.96005 508.75 396.90625 C 508.7618 396.884 508.80895 396.84055 508.84375 396.78125 C 508.87854 396.72198 508.91225 396.6482 508.96875 396.5625 C 509.04497 396.44691 509.13525 396.32808 509.21875 396.21875 z M 506.5 397.4375 C 506.41738 397.4503 506.32905 397.4904 506.21875 397.53125 C 506.19151 397.54073 506.11057 397.56895 506 397.65625 C 505.88944 397.74352 505.74462 397.86853 505.59375 398 C 505.44287 398.13148 505.30311 398.26623 505.15625 398.40625 C 505.0163 398.53967 504.90301 398.6495 504.78125 398.78125 C 504.6595 398.91299 504.53825 399.05617 504.46875 399.15625 C 504.39924 399.25631 504.376 399.3176 504.375 399.375 C 504.3681 399.41789 504.37665 399.4689 504.40625 399.5 C 504.43595 399.5311 504.4647 399.5545 504.5 399.5625 C 504.58659 399.579 504.6625 399.58135 504.6875 399.59375 C 504.7247 399.59465 504.75405 399.5965 504.78125 399.625 C 504.80755 399.65264 504.82495 399.72005 504.84375 399.78125 C 504.84595 399.79565 504.8631 399.8236 504.875 399.875 C 504.8872 399.9264 504.873 399.95775 504.875 399.96875 C 504.881 399.99755 504.89625 400.02085 504.90625 400.03125 C 504.92435 400.05025 504.93825 400.03525 504.96875 400.03125 C 505.08483 399.9783 505.1818 399.9401 505.25 399.875 C 505.2967 399.8305 505.33155 399.7831 505.34375 399.75 C 505.35565 399.7169 505.34575 399.7002 505.34375 399.6875 C 505.34435 399.6622 505.365 399.62345 505.375 399.59375 C 505.3846 399.56405 505.39175 399.5254 505.40625 399.5 C 505.42075 399.47464 505.44365 399.44825 505.46875 399.40625 C 505.49375 399.36425 505.52125 399.3317 505.53125 399.3125 C 505.56205 399.26005 505.62733 399.17945 505.75 399.0625 C 505.86663 398.95131 505.98412 398.83822 506.125 398.71875 C 506.26588 398.59928 506.39815 398.52615 506.46875 398.46875 C 506.52384 398.42445 506.564 398.39925 506.625 398.40625 C 506.68606 398.41315 506.74415 398.42985 506.78125 398.46875 L 507.21875 398.9375 L 506.34375 399.78125 L 506.46875 399.96875 L 507.375 399.09375 L 508 399.71875 L 507.09375 400.59375 C 507.0782 400.60855 507.0097 400.65 506.9375 400.6875 C 506.86527 400.7251 506.8312 400.744 506.8125 400.75 C 506.8048 400.7522 506.79525 400.745 506.78125 400.75 C 506.76715 400.7552 506.73625 400.77425 506.71875 400.78125 C 506.70135 400.78805 506.6977 400.77825 506.6875 400.78125 C 506.66704 400.78745 506.64555 400.8256 506.59375 400.875 C 506.52801 400.94097 506.44025 401.03952 506.34375 401.15625 C 506.36975 401.19908 506.38995 401.2539 506.40625 401.3125 C 506.41825 401.37695 506.42755 401.47458 506.46875 401.625 C 506.48445 401.67437 506.50405 401.7215 506.53125 401.75 L 508.6875 399.71875 L 506.84375 397.78125 C 506.87105 397.73208 506.872 397.69245 506.875 397.65625 C 506.878 397.61995 506.88 397.5761 506.875 397.5625 C 506.8695 397.543 506.86025 397.5173 506.84375 397.5 C 506.8018 397.4559 506.77015 397.4425 506.71875 397.4375 C 506.66381 397.42226 506.58262 397.4247 506.5 397.4375 z M 503.8125 401.53125 L 504.25 402.25 C 504.2854 402.31089 504.2687 402.35535 504.25 402.40625 C 504.24 402.42715 504.24295 402.468 504.21875 402.5 C 504.19452 402.53196 504.14655 402.54925 504.09375 402.59375 C 504.04092 402.63827 503.97225 402.68035 503.90625 402.71875 C 503.737 402.81752 503.61258 402.8423 503.5 402.8125 C 503.38665 402.77897 503.2582 402.67544 503.15625 402.5 C 503.04352 402.30599 503.01885 402.17184 503.03125 402.0625 C 503.03705 402.01076 503.0651 401.9723 503.125 401.9375 L 503.8125 401.53125 z M 500 402.59375 C 500.11744 402.60691 500.2234 402.65085 500.3125 402.71875 C 500.40247 402.78135 500.46525 402.86151 500.53125 402.96875 C 500.59545 403.07404 500.6464 403.17652 500.6875 403.3125 C 500.7285 403.44847 500.77625 403.59323 500.78125 403.71875 C 500.78525 403.84347 500.75805 403.95713 500.71875 404.0625 C 500.68075 404.16374 500.62105 404.2343 500.53125 404.3125 C 500.44416 404.38742 500.32805 404.4576 500.1875 404.5 C 500.04582 404.54281 499.92651 404.5767 499.8125 404.5625 C 499.69667 404.54635 499.59 404.5001 499.5 404.4375 C 499.41128 404.37077 499.3153 404.26308 499.25 404.15625 C 499.18467 404.04941 499.13485 403.94847 499.09375 403.8125 C 499.05265 403.67652 499.03625 403.52948 499.03125 403.40625 C 499.02695 403.28038 499.05575 403.16374 499.09375 403.0625 C 499.13266 402.95599 499.19305 402.8878 499.28125 402.8125 C 499.36766 402.73529 499.48332 402.6678 499.625 402.625 C 499.76555 402.5821 499.88531 402.57725 500 402.59375 z M 496.5625 403.96875 L 496.59375 404.8125 C 496.59795 404.88278 496.57085 404.93165 496.53125 404.96875 C 496.51295 404.98305 496.50475 404.9823 496.46875 405 C 496.43277 405.0177 496.3797 405.0464 496.3125 405.0625 C 496.24532 405.0786 496.17005 405.08875 496.09375 405.09375 C 495.89837 405.10566 495.74345 405.0772 495.65625 405 C 495.57003 404.91916 495.54365 404.76502 495.53125 404.5625 C 495.51755 404.33852 495.53365 404.18595 495.59375 404.09375 C 495.62218 404.05015 495.6809 404.03525 495.75 404.03125 L 496.5625 403.96875 z "
         transform="matrix(-1,0,0,-1,990,774.72437)"
         id="path7206-3"
         style="fill:#000000;fill-opacity:1" />
    </g>
  </g>
</svg>
